<?xml version="1.0" encoding="utf-8"?>
<!-- Generator: Adobe Illustrator 21.1.0, SVG Export Plug-In . SVG Version: 6.00 Build 0)  -->
<svg version="1.1" id="Layer_1" xmlns="http://www.w3.org/2000/svg" xmlns:xlink="http://www.w3.org/1999/xlink" x="0px" y="0px"
	 viewBox="0 0 146.5 127.7" style="enable-background:new 0 0 146.5 127.7;" xml:space="preserve">
<style type="text/css">
	.st0{fill:#383838;}
</style>
<g>
	<g>
		<path class="st0" d="M263.9,118.8c-0.9,0-1.6-0.2-2.4-0.5c-0.7-0.4-1.4-0.8-1.9-1.4s-0.9-1.3-1.2-2c-0.3-0.8-0.4-1.6-0.4-2.4
			c0-0.9,0.1-1.7,0.4-2.5s0.7-1.5,1.2-2.1s1.1-1,1.8-1.4c0.7-0.3,1.4-0.5,2.3-0.5c1,0,2,0.3,2.8,0.8s1.4,1.2,1.9,2v-7.6h1.6v15.2
			c0,0.4,0.2,0.7,0.6,0.7v1.4c-0.2,0-0.4,0.1-0.6,0.1c-0.4,0-0.7-0.1-1-0.4c-0.3-0.2-0.4-0.5-0.4-0.9v-1.1c-0.5,0.8-1.2,1.4-2,1.9
			C265.7,118.6,264.8,118.8,263.9,118.8z M264.3,117.4c0.4,0,0.8-0.1,1.3-0.2s0.9-0.4,1.3-0.7s0.7-0.6,1-1s0.4-0.8,0.5-1.2v-3.8
			c-0.2-0.4-0.4-0.8-0.7-1.2c-0.3-0.4-0.6-0.7-1-1s-0.8-0.5-1.2-0.7s-0.9-0.2-1.3-0.2c-0.7,0-1.3,0.1-1.8,0.4
			c-0.5,0.3-1,0.7-1.4,1.1s-0.7,1-0.9,1.6c-0.2,0.6-0.3,1.2-0.3,1.9s0.1,1.3,0.4,1.9c0.2,0.6,0.6,1.1,1,1.6s0.9,0.8,1.5,1.1
			C263,117.3,263.6,117.4,264.3,117.4z"/>
		<path class="st0" d="M278.4,103.6v-2.4h1.6v2.4H278.4z M278.4,118.6v-12.4h1.6v12.4H278.4z"/>
		<path class="st0" d="M293.3,118.8c-0.9,0-1.6-0.2-2.3-0.5s-1.3-0.8-1.8-1.4c-0.5-0.6-0.9-1.3-1.2-2c-0.3-0.8-0.4-1.5-0.4-2.4
			s0.1-1.7,0.4-2.5s0.7-1.5,1.2-2.1s1.1-1.1,1.8-1.4c0.7-0.3,1.5-0.5,2.3-0.5c1.1,0,2,0.3,2.8,0.8s1.4,1.2,2,2v-2.6h1.4v12.4
			c0,0.9-0.2,1.6-0.5,2.3s-0.8,1.2-1.3,1.7c-0.5,0.4-1.2,0.8-1.9,1s-1.5,0.3-2.3,0.3c-1.4,0-2.6-0.3-3.4-0.8c-0.9-0.5-1.6-1.2-2.1-2
			l1-0.8c0.5,0.8,1.1,1.4,1.9,1.7c0.8,0.4,1.7,0.6,2.6,0.6c0.6,0,1.2-0.1,1.7-0.2c0.5-0.2,1-0.4,1.4-0.7s0.7-0.7,1-1.2
			c0.2-0.5,0.4-1.1,0.4-1.7v-2.6c-0.5,0.8-1.1,1.4-1.9,1.9C295,118.5,294.2,118.8,293.3,118.8z M293.7,117.4c0.5,0,0.9-0.1,1.4-0.3
			s0.9-0.4,1.2-0.7c0.4-0.3,0.7-0.6,0.9-1s0.4-0.7,0.5-1.1v-3.8c-0.2-0.4-0.4-0.9-0.7-1.2s-0.6-0.7-1-1s-0.8-0.5-1.2-0.6
			c-0.4-0.2-0.9-0.2-1.3-0.2c-0.7,0-1.3,0.1-1.9,0.4c-0.5,0.3-1,0.7-1.4,1.2s-0.7,1-0.9,1.6c-0.2,0.6-0.3,1.2-0.3,1.8
			c0,0.7,0.1,1.3,0.4,1.9c0.2,0.6,0.6,1.1,1,1.6s0.9,0.8,1.5,1.1C292.5,117.3,293.1,117.4,293.7,117.4z"/>
		<path class="st0" d="M307.7,103.6v-2.4h1.6v2.4H307.7z M307.7,118.6v-12.4h1.6v12.4H307.7z"/>
		<path class="st0" d="M323.6,118c-0.1,0-0.2,0.1-0.4,0.2c-0.2,0.1-0.4,0.2-0.6,0.2c-0.2,0.1-0.5,0.2-0.8,0.2
			c-0.3,0.1-0.6,0.1-1,0.1c-0.3,0-0.7,0-1-0.1s-0.6-0.2-0.8-0.4c-0.2-0.2-0.4-0.4-0.6-0.7s-0.2-0.6-0.2-1v-8.9h-1.7v-1.4h1.7V102
			h1.6v4.2h2.9v1.3h-2.9v8.4c0,0.5,0.2,0.8,0.5,1s0.6,0.3,1,0.3c0.5,0,0.9-0.1,1.2-0.2c0.3-0.2,0.6-0.3,0.7-0.3L323.6,118z"/>
		<path class="st0" d="M333.5,118.8c-0.6,0-1.1-0.1-1.6-0.3s-0.9-0.5-1.3-0.8s-0.7-0.8-0.9-1.2c-0.2-0.5-0.3-1-0.3-1.5
			s0.1-1,0.4-1.5s0.6-0.9,1.1-1.2s1-0.6,1.6-0.8s1.3-0.3,2.1-0.3c0.6,0,1.3,0.1,1.9,0.2c0.6,0.1,1.2,0.3,1.7,0.5v-1.1
			c0-1.1-0.3-2-0.9-2.6s-1.5-1-2.6-1c-0.6,0-1.3,0.1-1.9,0.4c-0.7,0.3-1.3,0.6-2,1.1l-0.6-1.1c1.6-1.1,3.2-1.6,4.7-1.6
			c1.6,0,2.8,0.4,3.7,1.3c0.9,0.9,1.3,2.1,1.3,3.6v5.6c0,0.4,0.2,0.7,0.6,0.7v1.4c-0.3,0-0.5,0.1-0.6,0.1c-0.4,0-0.7-0.1-1-0.3
			c-0.2-0.2-0.4-0.5-0.4-0.9v-1c-0.6,0.7-1.3,1.3-2.1,1.7C335.4,118.6,334.5,118.8,333.5,118.8z M333.9,117.6c0.8,0,1.6-0.2,2.3-0.5
			c0.7-0.3,1.2-0.7,1.6-1.3c0.1-0.1,0.2-0.3,0.3-0.5c0.1-0.2,0.1-0.3,0.1-0.5v-2c-0.5-0.2-1.1-0.4-1.7-0.5s-1.2-0.2-1.8-0.2
			c-1.1,0-2.1,0.2-2.8,0.7s-1.1,1.1-1.1,1.9c0,0.4,0.1,0.7,0.2,1.1c0.2,0.3,0.4,0.6,0.6,0.9s0.6,0.4,0.9,0.6
			S333.4,117.6,333.9,117.6z"/>
		<path class="st0" d="M348.1,101.3h1.6v14.5c0,0.5,0.1,0.8,0.4,1.1s0.6,0.4,1.1,0.4c0.2,0,0.4,0,0.6-0.1s0.5-0.1,0.7-0.2l0.3,1.3
			c-0.3,0.1-0.7,0.2-1.1,0.3s-0.8,0.1-1.1,0.1c-0.7,0-1.3-0.2-1.8-0.6c-0.4-0.4-0.6-1-0.6-1.8v-15H348.1z"/>
		<path class="st0" d="M375.7,118.8c-1,0-2-0.3-2.8-0.8s-1.4-1.2-1.9-2v7.6h-1.7v-17.4h1.4v2.4c0.5-0.8,1.2-1.4,2-1.9
			s1.7-0.7,2.6-0.7s1.6,0.2,2.4,0.5s1.3,0.8,1.9,1.4s0.9,1.3,1.2,2.1s0.4,1.6,0.4,2.4c0,0.9-0.1,1.7-0.4,2.5s-0.7,1.5-1.2,2
			c-0.5,0.6-1.1,1-1.8,1.4C377.2,118.7,376.5,118.8,375.7,118.8z M375.2,117.4c0.7,0,1.3-0.1,1.8-0.4c0.5-0.3,1-0.7,1.4-1.1
			s0.7-1,0.9-1.6c0.2-0.6,0.3-1.2,0.3-1.8c0-0.7-0.1-1.3-0.4-1.9c-0.2-0.6-0.6-1.1-1-1.6s-0.9-0.8-1.5-1.1s-1.2-0.4-1.8-0.4
			c-0.4,0-0.8,0.1-1.3,0.2s-0.9,0.4-1.3,0.7s-0.7,0.6-1,1s-0.4,0.8-0.5,1.2v3.8c0.2,0.4,0.4,0.9,0.7,1.2c0.3,0.4,0.6,0.7,1,1
			s0.8,0.5,1.2,0.7C374.3,117.3,374.7,117.4,375.2,117.4z"/>
		<path class="st0" d="M394.9,107.6c-1.1,0-2,0.3-2.9,0.9s-1.4,1.4-1.7,2.4v7.7h-1.6v-12.4h1.5v3c0.5-1,1.1-1.7,1.9-2.2
			s1.6-0.8,2.5-0.8c0.1,0,0.2,0,0.3,0L394.9,107.6L394.9,107.6z"/>
		<path class="st0" d="M406.5,118.8c-0.9,0-1.7-0.2-2.5-0.5c-0.7-0.3-1.4-0.8-1.9-1.4c-0.5-0.6-1-1.3-1.3-2s-0.5-1.6-0.5-2.4
			c0-0.9,0.2-1.7,0.5-2.5s0.7-1.5,1.3-2c0.5-0.6,1.2-1.1,1.9-1.4c0.7-0.3,1.6-0.5,2.4-0.5s1.7,0.2,2.5,0.5s1.4,0.8,1.9,1.4
			c0.5,0.6,1,1.3,1.3,2c0.3,0.8,0.5,1.6,0.5,2.5s-0.2,1.7-0.5,2.4c-0.3,0.8-0.7,1.5-1.3,2c-0.5,0.6-1.2,1-1.9,1.4
			C408.2,118.7,407.4,118.8,406.5,118.8z M402,112.5c0,0.7,0.1,1.3,0.4,1.9c0.2,0.6,0.6,1.1,1,1.6s0.9,0.8,1.4,1.1s1.1,0.4,1.7,0.4
			s1.2-0.1,1.7-0.4c0.5-0.3,1-0.6,1.4-1.1s0.7-1,1-1.6c0.2-0.6,0.4-1.3,0.4-1.9c0-0.7-0.1-1.3-0.4-1.9c-0.2-0.6-0.6-1.1-1-1.6
			s-0.9-0.8-1.4-1.1s-1.1-0.4-1.7-0.4s-1.2,0.1-1.7,0.4c-0.5,0.3-1,0.6-1.4,1.1s-0.7,1-1,1.6C402.1,111.1,402,111.8,402,112.5z"/>
		<path class="st0" d="M425.2,118.8c-0.9,0-1.6-0.2-2.4-0.5c-0.7-0.4-1.4-0.8-1.9-1.4s-0.9-1.3-1.2-2c-0.3-0.8-0.4-1.6-0.4-2.4
			c0-0.9,0.1-1.7,0.4-2.5s0.7-1.5,1.2-2.1s1.1-1,1.8-1.4c0.7-0.3,1.4-0.5,2.3-0.5c1,0,2,0.3,2.8,0.8s1.4,1.2,1.9,2v-7.6h1.6v15.2
			c0,0.4,0.2,0.7,0.6,0.7v1.4c-0.2,0-0.4,0.1-0.6,0.1c-0.4,0-0.7-0.1-1-0.4c-0.3-0.2-0.4-0.5-0.4-0.9v-1.1c-0.5,0.8-1.2,1.4-2,1.9
			C426.9,118.6,426.1,118.8,425.2,118.8z M425.5,117.4c0.4,0,0.8-0.1,1.3-0.2s0.9-0.4,1.3-0.7s0.7-0.6,1-1s0.4-0.8,0.5-1.2v-3.8
			c-0.2-0.4-0.4-0.8-0.7-1.2c-0.3-0.4-0.6-0.7-1-1s-0.8-0.5-1.2-0.7s-0.9-0.2-1.3-0.2c-0.7,0-1.3,0.1-1.8,0.4
			c-0.5,0.3-1,0.7-1.4,1.1s-0.7,1-0.9,1.6c-0.2,0.6-0.3,1.2-0.3,1.9s0.1,1.3,0.4,1.9c0.2,0.6,0.6,1.1,1,1.6s0.9,0.8,1.5,1.1
			C424.3,117.3,424.9,117.4,425.5,117.4z"/>
		<path class="st0" d="M443.5,118.8c-1.3,0-2.3-0.4-3-1.3c-0.7-0.9-1-2.2-1-4v-7.3h1.6v7c0,2.8,1,4.2,2.9,4.2c0.5,0,0.9-0.1,1.4-0.2
			s0.9-0.4,1.3-0.7c0.4-0.3,0.7-0.7,1-1.1s0.6-0.9,0.7-1.4v-7.8h1.6v10.3c0,0.4,0.2,0.7,0.6,0.7v1.4c-0.2,0-0.3,0-0.5,0
			c-0.1,0-0.2,0-0.2,0c-0.4,0-0.7-0.2-0.9-0.4c-0.2-0.3-0.4-0.6-0.4-1v-1.4c-0.5,1-1.3,1.7-2.2,2.2
			C445.5,118.6,444.5,118.8,443.5,118.8z"/>
		<path class="st0" d="M457.6,112.4c0-0.9,0.1-1.7,0.5-2.5c0.3-0.8,0.7-1.5,1.3-2c0.5-0.6,1.2-1,2-1.4c0.8-0.3,1.6-0.5,2.5-0.5
			c1.2,0,2.2,0.3,3.1,0.8c0.9,0.5,1.5,1.2,2,2.1l-1.6,0.5c-0.3-0.6-0.8-1.1-1.5-1.5c-0.6-0.4-1.3-0.5-2.1-0.5
			c-0.6,0-1.2,0.1-1.8,0.4c-0.5,0.3-1,0.6-1.4,1s-0.7,1-1,1.6s-0.3,1.3-0.3,2s0.1,1.4,0.4,2c0.2,0.6,0.6,1.2,1,1.6
			c0.4,0.5,0.9,0.8,1.4,1.1s1.1,0.4,1.7,0.4c0.4,0,0.8-0.1,1.2-0.2c0.4-0.1,0.7-0.3,1.1-0.5c0.3-0.2,0.6-0.4,0.9-0.7
			c0.2-0.3,0.4-0.5,0.5-0.8l1.6,0.5c-0.2,0.4-0.4,0.9-0.8,1.2c-0.3,0.4-0.7,0.7-1.2,1s-1,0.5-1.5,0.6c-0.5,0.2-1.1,0.2-1.7,0.2
			c-0.9,0-1.7-0.2-2.5-0.5s-1.4-0.8-2-1.4c-0.6-0.6-1-1.3-1.3-2.1C457.8,114.1,457.6,113.3,457.6,112.4z"/>
		<path class="st0" d="M482.2,118c-0.1,0-0.2,0.1-0.4,0.2c-0.2,0.1-0.4,0.2-0.6,0.2c-0.2,0.1-0.5,0.2-0.8,0.2
			c-0.3,0.1-0.6,0.1-0.9,0.1c-0.3,0-0.7,0-1-0.1s-0.6-0.2-0.8-0.4s-0.4-0.4-0.6-0.7s-0.2-0.6-0.2-1v-8.9h-1.7v-1.4h1.7V102h1.6v4.2
			h2.9v1.3h-2.9v8.4c0,0.5,0.2,0.8,0.5,1s0.6,0.3,1,0.3c0.5,0,0.9-0.1,1.2-0.2c0.3-0.2,0.6-0.3,0.7-0.3L482.2,118z"/>
		<path class="st0" d="M504.9,118.8c-0.9,0-1.6-0.2-2.4-0.5c-0.7-0.4-1.4-0.8-1.9-1.4s-0.9-1.3-1.2-2c-0.3-0.8-0.4-1.6-0.4-2.4
			c0-0.9,0.1-1.7,0.4-2.5s0.7-1.5,1.2-2.1s1.1-1,1.8-1.4c0.7-0.3,1.4-0.5,2.3-0.5c1,0,2,0.3,2.8,0.8s1.4,1.2,1.9,2v-7.6h1.6v15.2
			c0,0.4,0.2,0.7,0.6,0.7v1.4c-0.2,0-0.4,0.1-0.6,0.1c-0.4,0-0.7-0.1-1-0.4c-0.3-0.2-0.4-0.5-0.4-0.9v-1.1c-0.5,0.8-1.2,1.4-2,1.9
			C506.6,118.6,505.8,118.8,504.9,118.8z M505.2,117.4c0.4,0,0.8-0.1,1.3-0.2s0.9-0.4,1.3-0.7s0.7-0.6,1-1s0.4-0.8,0.5-1.2v-3.8
			c-0.2-0.4-0.4-0.8-0.7-1.2s-0.6-0.7-1-1s-0.8-0.5-1.2-0.7s-0.9-0.2-1.3-0.2c-0.7,0-1.3,0.1-1.8,0.4c-0.5,0.3-1,0.7-1.4,1.1
			c-0.4,0.5-0.7,1-0.9,1.6s-0.3,1.2-0.3,1.9s0.1,1.3,0.4,1.9c0.2,0.6,0.6,1.1,1,1.6s0.9,0.8,1.5,1.1
			C504,117.3,504.6,117.4,505.2,117.4z"/>
		<path class="st0" d="M524.6,118.8c-0.9,0-1.7-0.2-2.5-0.5s-1.4-0.8-2-1.4c-0.6-0.6-1-1.3-1.3-2.1s-0.5-1.6-0.5-2.5
			s0.2-1.7,0.5-2.5s0.7-1.4,1.3-2c0.5-0.6,1.2-1,2-1.4c0.8-0.3,1.6-0.5,2.5-0.5s1.7,0.2,2.5,0.5s1.4,0.8,1.9,1.4
			c0.5,0.6,1,1.3,1.3,2c0.3,0.8,0.5,1.6,0.5,2.4c0,0.1,0,0.3,0,0.4c0,0.1,0,0.2,0,0.3h-10.6c0,0.7,0.2,1.3,0.5,1.8
			c0.3,0.6,0.6,1,1,1.5c0.4,0.4,0.9,0.7,1.4,1c0.5,0.2,1.1,0.3,1.7,0.3c0.4,0,0.8-0.1,1.2-0.2c0.4-0.1,0.8-0.3,1.1-0.5
			s0.6-0.4,0.9-0.7c0.3-0.3,0.5-0.6,0.6-0.9l1.4,0.4c-0.2,0.5-0.5,0.9-0.8,1.2s-0.8,0.7-1.2,1c-0.5,0.3-1,0.5-1.5,0.6
			C525.8,118.8,525.2,118.8,524.6,118.8z M529.2,111.8c0-0.7-0.2-1.3-0.5-1.8s-0.6-1-1-1.4s-0.9-0.7-1.4-0.9s-1.1-0.3-1.7-0.3
			c-0.6,0-1.2,0.1-1.7,0.3s-1,0.5-1.4,0.9s-0.7,0.9-1,1.4c-0.2,0.6-0.4,1.2-0.4,1.8H529.2z"/>
		<path class="st0" d="M542.1,118.8c-1,0-1.9-0.2-2.8-0.5c-0.9-0.3-1.7-0.8-2.4-1.4l0.7-1.1c0.7,0.6,1.4,1,2.1,1.3s1.5,0.4,2.3,0.4
			c1,0,1.8-0.2,2.4-0.6c0.6-0.4,0.9-1,0.9-1.7c0-0.3-0.1-0.6-0.2-0.9c-0.2-0.2-0.4-0.4-0.7-0.6c-0.3-0.2-0.7-0.3-1.2-0.5
			s-1-0.3-1.6-0.4c-0.7-0.2-1.3-0.3-1.9-0.5c-0.5-0.2-1-0.4-1.3-0.6c-0.3-0.2-0.6-0.5-0.8-0.8s-0.2-0.7-0.2-1.2
			c0-0.6,0.1-1.2,0.4-1.6c0.2-0.5,0.6-0.9,1-1.2s0.9-0.5,1.5-0.7s1.2-0.2,1.8-0.2c1,0,1.8,0.2,2.6,0.5s1.4,0.7,1.9,1.2l-0.8,1
			c-0.5-0.5-1-0.8-1.7-1.1c-0.7-0.2-1.3-0.4-2.1-0.4c-0.4,0-0.8,0-1.2,0.1s-0.7,0.2-1,0.4s-0.5,0.4-0.7,0.7s-0.2,0.6-0.2,1
			c0,0.3,0.1,0.6,0.2,0.8s0.3,0.4,0.5,0.5c0.3,0.2,0.6,0.3,1,0.4c0.4,0.1,0.9,0.2,1.4,0.4c0.8,0.2,1.5,0.4,2.1,0.6
			c0.6,0.2,1.1,0.4,1.5,0.7s0.7,0.6,0.9,0.9c0.2,0.4,0.3,0.8,0.3,1.3c0,1.1-0.4,2-1.3,2.7C544.7,118.5,543.6,118.8,542.1,118.8z"/>
		<path class="st0" d="M554.3,103.6v-2.4h1.6v2.4H554.3z M554.3,118.6v-12.4h1.6v12.4H554.3z"/>
		<path class="st0" d="M569.2,118.8c-0.9,0-1.6-0.2-2.3-0.5c-0.7-0.4-1.3-0.8-1.8-1.4s-0.9-1.3-1.2-2c-0.3-0.8-0.4-1.5-0.4-2.4
			s0.1-1.7,0.4-2.5c0.3-0.8,0.7-1.5,1.2-2.1s1.1-1.1,1.8-1.4c0.7-0.3,1.5-0.5,2.3-0.5c1.1,0,2,0.3,2.8,0.8s1.4,1.2,2,2v-2.6h1.4
			v12.4c0,0.9-0.2,1.6-0.5,2.3s-0.8,1.2-1.3,1.7c-0.5,0.4-1.2,0.8-1.9,1s-1.5,0.3-2.3,0.3c-1.4,0-2.6-0.3-3.4-0.8s-1.6-1.2-2.1-2
			l1-0.8c0.5,0.8,1.1,1.4,1.9,1.7s1.7,0.6,2.6,0.6c0.6,0,1.2-0.1,1.7-0.2c0.5-0.2,1-0.4,1.4-0.7s0.7-0.7,1-1.2
			c0.2-0.5,0.4-1.1,0.4-1.7v-2.6c-0.5,0.8-1.1,1.4-1.9,1.9S570.1,118.8,569.2,118.8z M569.7,117.4c0.5,0,0.9-0.1,1.4-0.3
			s0.9-0.4,1.2-0.7s0.7-0.6,0.9-1s0.4-0.7,0.5-1.1v-3.8c-0.2-0.4-0.4-0.9-0.7-1.2s-0.6-0.7-1-1s-0.8-0.5-1.2-0.6s-0.9-0.2-1.3-0.2
			c-0.7,0-1.3,0.1-1.9,0.4c-0.5,0.3-1,0.7-1.4,1.2s-0.7,1-0.9,1.6s-0.3,1.2-0.3,1.8c0,0.7,0.1,1.3,0.4,1.9s0.6,1.1,1,1.6
			s0.9,0.8,1.5,1.1C568.4,117.3,569,117.4,569.7,117.4z"/>
		<path class="st0" d="M594.1,118.6h-1.6v-6.9c0-1.5-0.2-2.5-0.7-3.2s-1.1-1-2-1c-0.5,0-1,0.1-1.4,0.3c-0.5,0.2-0.9,0.4-1.3,0.7
			s-0.8,0.7-1.1,1.1c-0.3,0.4-0.5,0.9-0.7,1.4v7.6h-1.6v-12.4h1.5v2.8c0.5-0.9,1.2-1.6,2.2-2.2c0.9-0.6,2-0.8,3.1-0.8
			c0.7,0,1.3,0.1,1.7,0.4c0.5,0.3,0.9,0.6,1.1,1.1c0.3,0.5,0.5,1,0.6,1.7s0.2,1.4,0.2,2.2V118.6z"/>
		<path class="st0" d="M607.6,118.8c-0.9,0-1.7-0.2-2.5-0.5s-1.4-0.8-2-1.4c-0.6-0.6-1-1.3-1.3-2.1s-0.5-1.6-0.5-2.5
			s0.2-1.7,0.5-2.5s0.7-1.4,1.3-2c0.5-0.6,1.2-1,2-1.4c0.8-0.3,1.6-0.5,2.5-0.5s1.7,0.2,2.5,0.5s1.4,0.8,1.9,1.4
			c0.5,0.6,1,1.3,1.3,2c0.3,0.8,0.5,1.6,0.5,2.4c0,0.1,0,0.3,0,0.4c0,0.1,0,0.2,0,0.3h-10.6c0,0.7,0.2,1.3,0.5,1.8
			c0.3,0.6,0.6,1,1,1.5c0.4,0.4,0.9,0.7,1.4,1c0.5,0.2,1.1,0.3,1.7,0.3c0.4,0,0.8-0.1,1.2-0.2c0.4-0.1,0.8-0.3,1.1-0.5
			s0.6-0.4,0.9-0.7c0.3-0.3,0.5-0.6,0.6-0.9l1.4,0.4c-0.2,0.5-0.5,0.9-0.8,1.2s-0.8,0.7-1.2,1c-0.5,0.3-1,0.5-1.5,0.6
			C608.8,118.8,608.2,118.8,607.6,118.8z M612.2,111.8c0-0.7-0.2-1.3-0.5-1.8s-0.6-1-1-1.4s-0.9-0.7-1.4-0.9s-1.1-0.3-1.7-0.3
			c-0.6,0-1.2,0.1-1.7,0.3s-1,0.5-1.4,0.9s-0.7,0.9-1,1.4c-0.2,0.6-0.4,1.2-0.4,1.8H612.2z"/>
		<path class="st0" d="M627.1,107.6c-1.1,0-2,0.3-2.9,0.9s-1.4,1.4-1.7,2.4v7.7h-1.6v-12.4h1.5v3c0.5-1,1.1-1.7,1.9-2.2
			c0.8-0.5,1.6-0.8,2.5-0.8c0.1,0,0.2,0,0.3,0V107.6z"/>
		<path class="st0" d="M661.7,109.6c0,1.4-1.1,2.4-2.4,2.4s-2.4-1.1-2.4-2.4c0-1.4,1.1-2.4,2.4-2.4
			C660.7,107.1,661.7,108.3,661.7,109.6z"/>
		<path class="st0" d="M697.4,118.8c-0.9,0-1.6-0.2-2.4-0.5c-0.7-0.4-1.4-0.8-1.9-1.4s-0.9-1.3-1.2-2c-0.3-0.8-0.4-1.6-0.4-2.4
			c0-0.9,0.1-1.7,0.4-2.5s0.7-1.5,1.2-2.1s1.1-1,1.8-1.4c0.7-0.3,1.4-0.5,2.3-0.5c1,0,2,0.3,2.8,0.8s1.4,1.2,1.9,2v-7.6h1.6v15.2
			c0,0.4,0.2,0.7,0.6,0.7v1.4c-0.2,0-0.4,0.1-0.6,0.1c-0.4,0-0.7-0.1-1-0.4c-0.3-0.2-0.4-0.5-0.4-0.9v-1.1c-0.5,0.8-1.2,1.4-2,1.9
			C699.1,118.6,698.3,118.8,697.4,118.8z M697.7,117.4c0.4,0,0.8-0.1,1.3-0.2s0.9-0.4,1.3-0.7s0.7-0.6,1-1s0.4-0.8,0.5-1.2v-3.8
			c-0.2-0.4-0.4-0.8-0.7-1.2s-0.6-0.7-1-1s-0.8-0.5-1.2-0.7s-0.9-0.2-1.3-0.2c-0.7,0-1.3,0.1-1.8,0.4c-0.5,0.3-1,0.7-1.4,1.1
			c-0.4,0.5-0.7,1-0.9,1.6s-0.3,1.2-0.3,1.9s0.1,1.3,0.4,1.9c0.2,0.6,0.6,1.1,1,1.6s0.9,0.8,1.5,1.1
			C696.5,117.3,697.1,117.4,697.7,117.4z"/>
		<path class="st0" d="M711.8,103.6v-2.4h1.6v2.4H711.8z M711.8,118.6v-12.4h1.6v12.4H711.8z"/>
		<path class="st0" d="M726.7,118.8c-0.9,0-1.6-0.2-2.3-0.5c-0.7-0.4-1.3-0.8-1.8-1.4s-0.9-1.3-1.2-2c-0.3-0.8-0.4-1.5-0.4-2.4
			s0.1-1.7,0.4-2.5c0.3-0.8,0.7-1.5,1.2-2.1s1.1-1.1,1.8-1.4c0.7-0.3,1.5-0.5,2.3-0.5c1.1,0,2,0.3,2.8,0.8s1.4,1.2,2,2v-2.6h1.4
			v12.4c0,0.9-0.2,1.6-0.5,2.3s-0.8,1.2-1.3,1.7c-0.5,0.4-1.2,0.8-1.9,1s-1.5,0.3-2.3,0.3c-1.4,0-2.6-0.3-3.4-0.8s-1.6-1.2-2.1-2
			l1-0.8c0.5,0.8,1.1,1.4,1.9,1.7s1.7,0.6,2.6,0.6c0.6,0,1.2-0.1,1.7-0.2c0.5-0.2,1-0.4,1.4-0.7s0.7-0.7,1-1.2
			c0.2-0.5,0.4-1.1,0.4-1.7v-2.6c-0.5,0.8-1.1,1.4-1.9,1.9S727.6,118.8,726.7,118.8z M727.2,117.4c0.5,0,0.9-0.1,1.4-0.3
			s0.9-0.4,1.2-0.7s0.7-0.6,0.9-1s0.4-0.7,0.5-1.1v-3.8c-0.2-0.4-0.4-0.9-0.7-1.2s-0.6-0.7-1-1s-0.8-0.5-1.2-0.6s-0.9-0.2-1.3-0.2
			c-0.7,0-1.3,0.1-1.9,0.4c-0.5,0.3-1,0.7-1.4,1.2s-0.7,1-0.9,1.6s-0.3,1.2-0.3,1.8c0,0.7,0.1,1.3,0.4,1.9s0.6,1.1,1,1.6
			s0.9,0.8,1.5,1.1C725.9,117.3,726.5,117.4,727.2,117.4z"/>
		<path class="st0" d="M741.2,103.6v-2.4h1.6v2.4H741.2z M741.2,118.6v-12.4h1.6v12.4H741.2z"/>
		<path class="st0" d="M757,118c-0.1,0-0.2,0.1-0.4,0.2c-0.2,0.1-0.4,0.2-0.6,0.2c-0.2,0.1-0.5,0.2-0.8,0.2
			c-0.3,0.1-0.6,0.1-0.9,0.1c-0.3,0-0.7,0-1-0.1s-0.6-0.2-0.8-0.4s-0.4-0.4-0.6-0.7s-0.2-0.6-0.2-1v-8.9H750v-1.4h1.7V102h1.6v4.2
			h2.9v1.3h-2.9v8.4c0,0.5,0.2,0.8,0.5,1s0.6,0.3,1,0.3c0.5,0,0.9-0.1,1.2-0.2c0.3-0.2,0.6-0.3,0.7-0.3L757,118z"/>
		<path class="st0" d="M766.9,118.8c-0.6,0-1.1-0.1-1.6-0.3s-0.9-0.5-1.3-0.8c-0.4-0.3-0.7-0.8-0.9-1.2c-0.2-0.5-0.3-1-0.3-1.5
			s0.1-1,0.4-1.5c0.3-0.5,0.6-0.9,1.1-1.2s1-0.6,1.6-0.8s1.3-0.3,2.1-0.3c0.6,0,1.3,0.1,1.9,0.2s1.2,0.3,1.7,0.5v-1.1
			c0-1.1-0.3-2-0.9-2.6c-0.6-0.6-1.5-1-2.6-1c-0.6,0-1.3,0.1-1.9,0.4c-0.7,0.3-1.3,0.6-2,1.1l-0.6-1.1c1.6-1.1,3.2-1.6,4.7-1.6
			c1.6,0,2.8,0.4,3.7,1.3c0.9,0.9,1.3,2.1,1.3,3.6v5.6c0,0.4,0.2,0.7,0.6,0.7v1.4c-0.3,0-0.5,0.1-0.6,0.1c-0.4,0-0.7-0.1-1-0.3
			s-0.4-0.5-0.4-0.9v-1c-0.6,0.7-1.3,1.3-2.1,1.7S767.9,118.8,766.9,118.8z M767.3,117.6c0.8,0,1.6-0.2,2.3-0.5s1.2-0.7,1.6-1.3
			c0.1-0.1,0.2-0.3,0.3-0.5s0.1-0.3,0.1-0.5v-2c-0.5-0.2-1.1-0.4-1.7-0.5c-0.6-0.1-1.2-0.2-1.8-0.2c-1.1,0-2.1,0.2-2.8,0.7
			s-1.1,1.1-1.1,1.9c0,0.4,0.1,0.7,0.2,1.1c0.2,0.3,0.4,0.6,0.6,0.9c0.3,0.2,0.6,0.4,0.9,0.6C766.5,117.5,766.9,117.6,767.3,117.6z"
			/>
		<path class="st0" d="M781.6,101.3h1.6v14.5c0,0.5,0.1,0.8,0.4,1.1c0.3,0.3,0.6,0.4,1.1,0.4c0.2,0,0.4,0,0.6-0.1s0.5-0.1,0.7-0.2
			l0.3,1.3c-0.3,0.1-0.7,0.2-1.1,0.3s-0.8,0.1-1.1,0.1c-0.7,0-1.3-0.2-1.8-0.6c-0.4-0.4-0.6-1-0.6-1.8v-15H781.6z"/>
		<path class="st0" d="M805.9,118.8c-0.6,0-1.1-0.1-1.6-0.3s-0.9-0.5-1.3-0.8c-0.4-0.3-0.7-0.8-0.9-1.2c-0.2-0.5-0.3-1-0.3-1.5
			s0.1-1,0.4-1.5c0.3-0.5,0.6-0.9,1.1-1.2s1-0.6,1.6-0.8s1.3-0.3,2.1-0.3c0.6,0,1.3,0.1,1.9,0.2s1.2,0.3,1.7,0.5v-1.1
			c0-1.1-0.3-2-0.9-2.6c-0.6-0.6-1.5-1-2.6-1c-0.6,0-1.3,0.1-1.9,0.4c-0.7,0.3-1.3,0.6-2,1.1l-0.6-1.1c1.6-1.1,3.2-1.6,4.7-1.6
			c1.6,0,2.8,0.4,3.7,1.3c0.9,0.9,1.3,2.1,1.3,3.6v5.6c0,0.4,0.2,0.7,0.6,0.7v1.4c-0.3,0-0.5,0.1-0.6,0.1c-0.4,0-0.7-0.1-1-0.3
			s-0.4-0.5-0.4-0.9v-1c-0.6,0.7-1.3,1.3-2.1,1.7S806.9,118.8,805.9,118.8z M806.3,117.6c0.8,0,1.6-0.2,2.3-0.5s1.2-0.7,1.6-1.3
			c0.1-0.1,0.2-0.3,0.3-0.5s0.1-0.3,0.1-0.5v-2c-0.5-0.2-1.1-0.4-1.7-0.5c-0.6-0.1-1.2-0.2-1.8-0.2c-1.1,0-2.1,0.2-2.8,0.7
			s-1.1,1.1-1.1,1.9c0,0.4,0.1,0.7,0.2,1.1c0.2,0.3,0.4,0.6,0.6,0.9c0.3,0.2,0.6,0.4,0.9,0.6C805.5,117.5,805.9,117.6,806.3,117.6z"
			/>
		<path class="st0" d="M826.6,107.6c-1.1,0-2,0.3-2.9,0.9s-1.4,1.4-1.7,2.4v7.7h-1.6v-12.4h1.5v3c0.5-1,1.1-1.7,1.9-2.2
			c0.8-0.5,1.6-0.8,2.5-0.8c0.1,0,0.2,0,0.3,0V107.6z"/>
		<path class="st0" d="M839.5,118c-0.1,0-0.2,0.1-0.4,0.2c-0.2,0.1-0.4,0.2-0.6,0.2c-0.2,0.1-0.5,0.2-0.8,0.2
			c-0.3,0.1-0.6,0.1-0.9,0.1c-0.3,0-0.7,0-1-0.1s-0.6-0.2-0.8-0.4s-0.4-0.4-0.6-0.7s-0.2-0.6-0.2-1v-8.9h-1.7v-1.4h1.7V102h1.6v4.2
			h2.9v1.3h-2.9v8.4c0,0.5,0.2,0.8,0.5,1s0.6,0.3,1,0.3c0.5,0,0.9-0.1,1.2-0.2c0.3-0.2,0.6-0.3,0.7-0.3L839.5,118z"/>
		<path class="st0" d="M862.2,118.8c-0.9,0-1.6-0.2-2.4-0.5c-0.7-0.4-1.4-0.8-1.9-1.4s-0.9-1.3-1.2-2c-0.3-0.8-0.4-1.6-0.4-2.4
			c0-0.9,0.1-1.7,0.4-2.5s0.7-1.5,1.2-2.1s1.1-1,1.8-1.4c0.7-0.3,1.4-0.5,2.3-0.5c1,0,2,0.3,2.8,0.8s1.4,1.2,1.9,2v-7.6h1.6v15.2
			c0,0.4,0.2,0.7,0.6,0.7v1.4c-0.2,0-0.4,0.1-0.6,0.1c-0.4,0-0.7-0.1-1-0.4c-0.3-0.2-0.4-0.5-0.4-0.9v-1.1c-0.5,0.8-1.2,1.4-2,1.9
			C863.9,118.6,863.1,118.8,862.2,118.8z M862.5,117.4c0.4,0,0.8-0.1,1.3-0.2s0.9-0.4,1.3-0.7s0.7-0.6,1-1s0.4-0.8,0.5-1.2v-3.8
			c-0.2-0.4-0.4-0.8-0.7-1.2s-0.6-0.7-1-1s-0.8-0.5-1.2-0.7s-0.9-0.2-1.3-0.2c-0.7,0-1.3,0.1-1.8,0.4c-0.5,0.3-1,0.7-1.4,1.1
			c-0.4,0.5-0.7,1-0.9,1.6s-0.3,1.2-0.3,1.9s0.1,1.3,0.4,1.9c0.2,0.6,0.6,1.1,1,1.6s0.9,0.8,1.5,1.1
			C861.3,117.3,861.9,117.4,862.5,117.4z"/>
		<path class="st0" d="M876.6,103.6v-2.4h1.6v2.4H876.6z M876.6,118.6v-12.4h1.6v12.4H876.6z"/>
		<path class="st0" d="M892.7,107.6c-1.1,0-2,0.3-2.9,0.9s-1.4,1.4-1.7,2.4v7.7h-1.6v-12.4h1.5v3c0.5-1,1.1-1.7,1.9-2.2
			c0.8-0.5,1.6-0.8,2.5-0.8c0.1,0,0.2,0,0.3,0V107.6z"/>
		<path class="st0" d="M904.3,118.8c-0.9,0-1.7-0.2-2.5-0.5s-1.4-0.8-2-1.4c-0.6-0.6-1-1.3-1.3-2.1s-0.5-1.6-0.5-2.5
			s0.2-1.7,0.5-2.5s0.7-1.4,1.3-2c0.5-0.6,1.2-1,2-1.4c0.8-0.3,1.6-0.5,2.5-0.5s1.7,0.2,2.5,0.5s1.4,0.8,1.9,1.4
			c0.5,0.6,1,1.3,1.3,2c0.3,0.8,0.5,1.6,0.5,2.4c0,0.1,0,0.3,0,0.4c0,0.1,0,0.2,0,0.3h-10.6c0,0.7,0.2,1.3,0.5,1.8
			c0.3,0.6,0.6,1,1,1.5c0.4,0.4,0.9,0.7,1.4,1c0.5,0.2,1.1,0.3,1.7,0.3c0.4,0,0.8-0.1,1.2-0.2c0.4-0.1,0.8-0.3,1.1-0.5
			s0.6-0.4,0.9-0.7c0.3-0.3,0.5-0.6,0.6-0.9l1.4,0.4c-0.2,0.5-0.5,0.9-0.8,1.2s-0.8,0.7-1.2,1c-0.5,0.3-1,0.5-1.5,0.6
			C905.5,118.8,904.9,118.8,904.3,118.8z M908.9,111.8c0-0.7-0.2-1.3-0.5-1.8s-0.6-1-1-1.4s-0.9-0.7-1.4-0.9s-1.1-0.3-1.7-0.3
			c-0.6,0-1.2,0.1-1.7,0.3s-1,0.5-1.4,0.9s-0.7,0.9-1,1.4c-0.2,0.6-0.4,1.2-0.4,1.8H908.9z"/>
		<path class="st0" d="M916.8,112.4c0-0.9,0.1-1.7,0.5-2.5c0.3-0.8,0.7-1.5,1.3-2c0.5-0.6,1.2-1,2-1.4c0.8-0.3,1.6-0.5,2.5-0.5
			c1.2,0,2.2,0.3,3.1,0.8c0.9,0.5,1.5,1.2,2,2.1l-1.6,0.5c-0.3-0.6-0.8-1.1-1.5-1.5c-0.6-0.4-1.3-0.5-2.1-0.5
			c-0.6,0-1.2,0.1-1.8,0.4c-0.5,0.3-1,0.6-1.4,1s-0.7,1-1,1.6s-0.3,1.3-0.3,2s0.1,1.4,0.4,2c0.2,0.6,0.6,1.2,1,1.6
			c0.4,0.5,0.9,0.8,1.4,1.1s1.1,0.4,1.7,0.4c0.4,0,0.8-0.1,1.2-0.2c0.4-0.1,0.7-0.3,1.1-0.5c0.3-0.2,0.6-0.4,0.9-0.7
			c0.2-0.3,0.4-0.5,0.5-0.8l1.6,0.5c-0.2,0.4-0.4,0.9-0.8,1.2c-0.3,0.4-0.7,0.7-1.2,1s-1,0.5-1.5,0.6c-0.5,0.2-1.1,0.2-1.7,0.2
			c-0.9,0-1.7-0.2-2.5-0.5s-1.4-0.8-2-1.4c-0.6-0.6-1-1.3-1.3-2.1C917,114.1,916.8,113.3,916.8,112.4z"/>
		<path class="st0" d="M941.4,118c-0.1,0-0.2,0.1-0.4,0.2c-0.2,0.1-0.4,0.2-0.6,0.2c-0.2,0.1-0.5,0.2-0.8,0.2
			c-0.3,0.1-0.6,0.1-0.9,0.1c-0.3,0-0.7,0-1-0.1s-0.6-0.2-0.8-0.4s-0.4-0.4-0.6-0.7s-0.2-0.6-0.2-1v-8.9h-1.7v-1.4h1.7V102h1.6v4.2
			h2.9v1.3h-2.9v8.4c0,0.5,0.2,0.8,0.5,1s0.6,0.3,1,0.3c0.5,0,0.9-0.1,1.2-0.2c0.3-0.2,0.6-0.3,0.7-0.3L941.4,118z"/>
		<path class="st0" d="M953.1,118.8c-0.9,0-1.7-0.2-2.5-0.5c-0.7-0.3-1.4-0.8-1.9-1.4c-0.5-0.6-1-1.3-1.3-2
			c-0.3-0.8-0.5-1.6-0.5-2.4c0-0.9,0.2-1.7,0.5-2.5s0.7-1.5,1.3-2c0.5-0.6,1.2-1.1,1.9-1.4c0.7-0.3,1.6-0.5,2.4-0.5
			c0.9,0,1.7,0.2,2.5,0.5s1.4,0.8,1.9,1.4c0.5,0.6,1,1.3,1.3,2c0.3,0.8,0.5,1.6,0.5,2.5s-0.2,1.7-0.5,2.4s-0.7,1.5-1.3,2
			c-0.5,0.6-1.2,1-1.9,1.4C954.9,118.7,954.1,118.8,953.1,118.8z M948.7,112.5c0,0.7,0.1,1.3,0.4,1.9c0.2,0.6,0.6,1.1,1,1.6
			s0.9,0.8,1.4,1.1s1.1,0.4,1.7,0.4s1.2-0.1,1.7-0.4c0.5-0.3,1-0.6,1.4-1.1s0.7-1,1-1.6s0.4-1.3,0.4-1.9c0-0.7-0.1-1.3-0.4-1.9
			s-0.6-1.1-1-1.6s-0.9-0.8-1.4-1.1s-1.1-0.4-1.7-0.4s-1.2,0.1-1.7,0.4c-0.5,0.3-1,0.6-1.4,1.1s-0.7,1-1,1.6
			C948.8,111.1,948.7,111.8,948.7,112.5z"/>
		<path class="st0" d="M972.9,107.6c-1.1,0-2,0.3-2.9,0.9s-1.4,1.4-1.7,2.4v7.7h-1.6v-12.4h1.5v3c0.5-1,1.1-1.7,1.9-2.2
			s1.6-0.8,2.5-0.8c0.1,0,0.2,0,0.3,0L972.9,107.6L972.9,107.6z"/>
		<path class="st0" d="M258.8,140.7v-2.4h1.6v2.4H258.8z M258.8,155.7v-12.4h1.6v12.4H258.8z"/>
		<path class="st0" d="M279.2,155.7h-1.6v-6.9c0-1.5-0.2-2.5-0.7-3.2c-0.4-0.7-1.1-1-2-1c-0.5,0-0.9,0.1-1.4,0.3s-0.9,0.4-1.3,0.7
			s-0.8,0.7-1.1,1.1c-0.3,0.4-0.5,0.9-0.7,1.4v7.6h-1.6v-12.4h1.5v2.8c0.5-0.9,1.2-1.6,2.2-2.2c0.9-0.6,2-0.8,3.1-0.8
			c0.7,0,1.3,0.1,1.7,0.4c0.5,0.3,0.9,0.6,1.1,1.1c0.3,0.5,0.5,1,0.6,1.7s0.2,1.4,0.2,2.2L279.2,155.7L279.2,155.7z"/>
		<path class="st0" d="M293.2,155.1c-0.1,0-0.2,0.1-0.4,0.2c-0.2,0.1-0.4,0.2-0.6,0.2c-0.2,0.1-0.5,0.2-0.8,0.2
			c-0.3,0.1-0.6,0.1-1,0.1c-0.3,0-0.7,0-1-0.1s-0.6-0.2-0.8-0.4c-0.2-0.2-0.4-0.4-0.6-0.7s-0.2-0.6-0.2-1v-8.9h-1.7v-1.3h1.7v-4.2
			h1.6v4.2h2.9v1.3h-2.9v8.4c0,0.5,0.2,0.8,0.5,1s0.6,0.3,1,0.3c0.5,0,0.9-0.1,1.2-0.2c0.3-0.2,0.6-0.3,0.7-0.3L293.2,155.1z"/>
		<path class="st0" d="M305,155.9c-0.9,0-1.7-0.2-2.5-0.5s-1.4-0.8-2-1.4c-0.6-0.6-1-1.3-1.3-2.1s-0.5-1.6-0.5-2.5s0.2-1.7,0.5-2.5
			s0.7-1.4,1.3-2c0.5-0.6,1.2-1,2-1.4c0.8-0.3,1.6-0.5,2.5-0.5s1.7,0.2,2.5,0.5s1.4,0.8,1.9,1.4c0.5,0.6,1,1.3,1.3,2
			c0.3,0.8,0.5,1.6,0.5,2.4c0,0.1,0,0.3,0,0.4c0,0.1,0,0.2,0,0.3h-10.6c0,0.7,0.2,1.3,0.5,1.8c0.3,0.6,0.6,1,1,1.5
			c0.4,0.4,0.9,0.7,1.4,1c0.5,0.2,1.1,0.3,1.7,0.3c0.4,0,0.8-0.1,1.2-0.2c0.4-0.1,0.8-0.3,1.1-0.5c0.3-0.2,0.6-0.4,0.9-0.7
			s0.5-0.6,0.6-0.9l1.4,0.4c-0.2,0.5-0.5,0.9-0.8,1.2c-0.3,0.4-0.8,0.7-1.2,1c-0.5,0.3-1,0.5-1.5,0.6S305.6,155.9,305,155.9z
			 M309.6,148.8c0-0.7-0.2-1.3-0.5-1.8s-0.6-1-1-1.4s-0.9-0.7-1.4-0.9s-1.1-0.3-1.7-0.3s-1.2,0.1-1.7,0.3s-1,0.5-1.4,0.9
			s-0.7,0.9-1,1.4c-0.2,0.6-0.4,1.2-0.4,1.8H309.6z"/>
		<path class="st0" d="M324.5,144.7c-1.1,0-2,0.3-2.9,0.9s-1.4,1.4-1.7,2.4v7.7h-1.6v-12.4h1.5v3c0.5-1,1.1-1.7,1.9-2.2
			s1.6-0.8,2.5-0.8c0.1,0,0.2,0,0.3,0L324.5,144.7L324.5,144.7z"/>
		<path class="st0" d="M334.4,155.9c-0.6,0-1.1-0.1-1.6-0.3s-0.9-0.5-1.3-0.8s-0.7-0.8-0.9-1.2c-0.2-0.5-0.3-1-0.3-1.5
			s0.1-1,0.4-1.5s0.6-0.9,1.1-1.2s1-0.6,1.6-0.8s1.3-0.3,2.1-0.3c0.6,0,1.3,0.1,1.9,0.2c0.6,0.1,1.2,0.3,1.7,0.5v-1.1
			c0-1.1-0.3-2-0.9-2.6s-1.5-1-2.6-1c-0.6,0-1.3,0.1-1.9,0.4c-0.7,0.3-1.3,0.6-2,1.1l-0.6-1.1c1.6-1.1,3.2-1.6,4.7-1.6
			c1.6,0,2.8,0.4,3.7,1.3c0.9,0.9,1.3,2.1,1.3,3.6v5.6c0,0.4,0.2,0.7,0.6,0.7v1.4c-0.3,0-0.5,0.1-0.6,0.1c-0.4,0-0.7-0.1-1-0.3
			c-0.2-0.2-0.4-0.5-0.4-0.9v-1c-0.6,0.7-1.3,1.3-2.1,1.7C336.3,155.7,335.4,155.9,334.4,155.9z M334.8,154.7c0.8,0,1.6-0.2,2.3-0.5
			c0.7-0.3,1.2-0.7,1.6-1.3c0.1-0.1,0.2-0.3,0.3-0.5c0.1-0.2,0.1-0.3,0.1-0.5v-2c-0.5-0.2-1.1-0.4-1.7-0.5s-1.2-0.2-1.8-0.2
			c-1.1,0-2.1,0.2-2.8,0.7s-1.1,1.1-1.1,1.9c0,0.4,0.1,0.7,0.2,1.1c0.2,0.3,0.4,0.6,0.6,0.9s0.6,0.4,0.9,0.6
			S334.3,154.7,334.8,154.7z"/>
		<path class="st0" d="M348.1,149.5c0-0.9,0.2-1.7,0.5-2.5s0.7-1.5,1.3-2s1.2-1,2-1.4c0.8-0.3,1.6-0.5,2.5-0.5
			c1.2,0,2.2,0.3,3.1,0.8s1.5,1.2,2,2.1l-1.6,0.5c-0.3-0.6-0.8-1.1-1.5-1.5s-1.3-0.5-2.1-0.5c-0.6,0-1.2,0.1-1.8,0.4s-1,0.6-1.4,1
			s-0.7,1-1,1.6c-0.2,0.6-0.3,1.3-0.3,2s0.1,1.4,0.4,2c0.2,0.6,0.6,1.2,1,1.6c0.4,0.5,0.9,0.8,1.4,1.1s1.1,0.4,1.7,0.4
			c0.4,0,0.8-0.1,1.2-0.2c0.4-0.1,0.7-0.3,1.1-0.5c0.3-0.2,0.6-0.4,0.9-0.7c0.2-0.3,0.4-0.5,0.5-0.8l1.6,0.5
			c-0.2,0.4-0.4,0.9-0.8,1.2s-0.7,0.7-1.2,1s-0.9,0.5-1.5,0.6s-1.1,0.2-1.7,0.2c-0.9,0-1.7-0.2-2.5-0.5s-1.4-0.8-2-1.4
			c-0.6-0.6-1-1.3-1.3-2.1C348.3,151.2,348.1,150.3,348.1,149.5z"/>
		<path class="st0" d="M372.7,155.1c-0.1,0-0.2,0.1-0.4,0.2c-0.2,0.1-0.4,0.2-0.6,0.2c-0.2,0.1-0.5,0.2-0.8,0.2
			c-0.3,0.1-0.6,0.1-1,0.1c-0.3,0-0.7,0-1-0.1s-0.6-0.2-0.8-0.4c-0.2-0.2-0.4-0.4-0.6-0.7s-0.2-0.6-0.2-1v-8.9h-1.7v-1.3h1.7v-4.2
			h1.6v4.2h2.9v1.3h-2.9v8.4c0,0.5,0.2,0.8,0.5,1s0.6,0.3,1,0.3c0.5,0,0.9-0.1,1.2-0.2c0.3-0.2,0.6-0.3,0.7-0.3L372.7,155.1z"/>
		<path class="st0" d="M379.5,140.7v-2.4h1.6v2.4H379.5z M379.5,155.7v-12.4h1.6v12.4H379.5z"/>
		<path class="st0" d="M393.1,155.7l-5-12.4h1.7l4.3,10.9l4.3-10.9h1.6l-5,12.4H393.1z"/>
		<path class="st0" d="M411.7,155.9c-0.9,0-1.7-0.2-2.5-0.5s-1.4-0.8-2-1.4c-0.6-0.6-1-1.3-1.3-2.1s-0.5-1.6-0.5-2.5
			s0.2-1.7,0.5-2.5s0.7-1.4,1.3-2c0.5-0.6,1.2-1,2-1.4c0.8-0.3,1.6-0.5,2.5-0.5s1.7,0.2,2.5,0.5s1.4,0.8,1.9,1.4
			c0.5,0.6,1,1.3,1.3,2c0.3,0.8,0.5,1.6,0.5,2.4c0,0.1,0,0.3,0,0.4c0,0.1,0,0.2,0,0.3h-10.6c0,0.7,0.2,1.3,0.5,1.8
			c0.3,0.6,0.6,1,1,1.5c0.4,0.4,0.9,0.7,1.4,1c0.5,0.2,1.1,0.3,1.7,0.3c0.4,0,0.8-0.1,1.2-0.2c0.4-0.1,0.8-0.3,1.1-0.5
			c0.3-0.2,0.6-0.4,0.9-0.7s0.5-0.6,0.6-0.9l1.4,0.4c-0.2,0.5-0.5,0.9-0.8,1.2c-0.3,0.4-0.8,0.7-1.2,1c-0.5,0.3-1,0.5-1.5,0.6
			S412.3,155.9,411.7,155.9z M416.3,148.8c0-0.7-0.2-1.3-0.5-1.8s-0.6-1-1-1.4s-0.9-0.7-1.4-0.9s-1.1-0.3-1.7-0.3s-1.2,0.1-1.7,0.3
			s-1,0.5-1.4,0.9s-0.7,0.9-1,1.4c-0.2,0.6-0.4,1.2-0.4,1.8H416.3z"/>
		<path class="st0" d="M436.5,155.7v-11.1h-1.7v-1.3h1.7V143c0-1.5,0.3-2.7,1-3.6c0.6-0.9,1.5-1.3,2.7-1.3c0.5,0,1,0.1,1.4,0.2
			s0.9,0.3,1.2,0.6l-0.5,1.2c-0.2-0.2-0.5-0.3-0.8-0.4c-0.3-0.1-0.7-0.1-1-0.1c-0.8,0-1.3,0.3-1.7,0.9c-0.4,0.6-0.6,1.4-0.6,2.5v0.4
			h3.4v1.3h-3.4v11.1L436.5,155.7L436.5,155.7z"/>
		<path class="st0" d="M454.6,144.7c-1.1,0-2,0.3-2.9,0.9s-1.4,1.4-1.7,2.4v7.7h-1.6v-12.4h1.5v3c0.5-1,1.1-1.7,1.9-2.2
			c0.8-0.5,1.6-0.8,2.5-0.8c0.1,0,0.2,0,0.3,0V144.7z"/>
		<path class="st0" d="M466.2,155.9c-0.9,0-1.7-0.2-2.5-0.5c-0.7-0.3-1.4-0.8-1.9-1.4c-0.5-0.6-1-1.3-1.3-2
			c-0.3-0.8-0.5-1.6-0.5-2.4c0-0.9,0.2-1.7,0.5-2.5s0.7-1.5,1.3-2c0.5-0.6,1.2-1.1,1.9-1.4c0.7-0.3,1.6-0.5,2.4-0.5
			c0.9,0,1.7,0.2,2.5,0.5s1.4,0.8,1.9,1.4c0.5,0.6,1,1.3,1.3,2c0.3,0.8,0.5,1.6,0.5,2.5s-0.2,1.7-0.5,2.4s-0.7,1.5-1.3,2
			c-0.5,0.6-1.2,1-1.9,1.4C467.9,155.7,467.1,155.9,466.2,155.9z M461.7,149.5c0,0.7,0.1,1.3,0.4,1.9c0.2,0.6,0.6,1.1,1,1.6
			s0.9,0.8,1.4,1.1s1.1,0.4,1.7,0.4c0.6,0,1.2-0.1,1.7-0.4c0.5-0.3,1-0.6,1.4-1.1s0.7-1,1-1.6s0.4-1.3,0.4-1.9
			c0-0.7-0.1-1.3-0.4-1.9s-0.6-1.1-1-1.6s-0.9-0.8-1.4-1.1s-1.1-0.4-1.7-0.4c-0.6,0-1.2,0.1-1.7,0.4c-0.5,0.3-1,0.6-1.4,1.1
			s-0.7,1-1,1.6C461.8,148.2,461.7,148.9,461.7,149.5z"/>
		<path class="st0" d="M490.2,155.7h-1.6v-6.9c0-1.5-0.2-2.5-0.7-3.2s-1.1-1-2-1c-0.5,0-1,0.1-1.4,0.3c-0.5,0.2-0.9,0.4-1.3,0.7
			s-0.8,0.7-1.1,1.1c-0.3,0.4-0.5,0.9-0.7,1.4v7.6h-1.6v-12.4h1.5v2.8c0.5-0.9,1.2-1.6,2.2-2.2c0.9-0.6,2-0.8,3.1-0.8
			c0.7,0,1.3,0.1,1.7,0.4c0.5,0.3,0.9,0.6,1.1,1.1c0.3,0.5,0.5,1,0.6,1.7s0.2,1.4,0.2,2.2V155.7z"/>
		<path class="st0" d="M504.2,155.1c-0.1,0-0.2,0.1-0.4,0.2c-0.2,0.1-0.4,0.2-0.6,0.2c-0.2,0.1-0.5,0.2-0.8,0.2
			c-0.3,0.1-0.6,0.1-0.9,0.1c-0.3,0-0.7,0-1-0.1s-0.6-0.2-0.8-0.4s-0.4-0.4-0.6-0.7s-0.2-0.6-0.2-1v-8.9h-1.7v-1.3h1.7v-4.2h1.6v4.2
			h2.9v1.3h-2.9v8.4c0,0.5,0.2,0.8,0.5,1s0.6,0.3,1,0.3c0.5,0,0.9-0.1,1.2-0.2c0.3-0.2,0.6-0.3,0.7-0.3L504.2,155.1z"/>
		<path class="st0" d="M510.5,150v-1.5h6.9v1.5H510.5z"/>
		<path class="st0" d="M530.9,155.9c-0.9,0-1.7-0.2-2.5-0.5s-1.4-0.8-2-1.4c-0.6-0.6-1-1.3-1.3-2.1s-0.5-1.6-0.5-2.5
			s0.2-1.7,0.5-2.5s0.7-1.4,1.3-2c0.5-0.6,1.2-1,2-1.4c0.8-0.3,1.6-0.5,2.5-0.5s1.7,0.2,2.5,0.5s1.4,0.8,1.9,1.4
			c0.5,0.6,1,1.3,1.3,2c0.3,0.8,0.5,1.6,0.5,2.4c0,0.1,0,0.3,0,0.4c0,0.1,0,0.2,0,0.3h-10.6c0,0.7,0.2,1.3,0.5,1.8
			c0.3,0.6,0.6,1,1,1.5c0.4,0.4,0.9,0.7,1.4,1c0.5,0.2,1.1,0.3,1.7,0.3c0.4,0,0.8-0.1,1.2-0.2c0.4-0.1,0.8-0.3,1.1-0.5
			s0.6-0.4,0.9-0.7c0.3-0.3,0.5-0.6,0.6-0.9l1.4,0.4c-0.2,0.5-0.5,0.9-0.8,1.2s-0.8,0.7-1.2,1c-0.5,0.3-1,0.5-1.5,0.6
			C532.1,155.8,531.5,155.9,530.9,155.9z M535.5,148.8c0-0.7-0.2-1.3-0.5-1.8s-0.6-1-1-1.4s-0.9-0.7-1.4-0.9s-1.1-0.3-1.7-0.3
			c-0.6,0-1.2,0.1-1.7,0.3s-1,0.5-1.4,0.9s-0.7,0.9-1,1.4c-0.2,0.6-0.4,1.2-0.4,1.8H535.5z"/>
		<path class="st0" d="M554.6,155.7H553v-6.9c0-1.5-0.2-2.5-0.7-3.2s-1.1-1-2-1c-0.5,0-1,0.1-1.4,0.3c-0.5,0.2-0.9,0.4-1.3,0.7
			s-0.8,0.7-1.1,1.1c-0.3,0.4-0.5,0.9-0.7,1.4v7.6h-1.6v-12.4h1.5v2.8c0.5-0.9,1.2-1.6,2.2-2.2c0.9-0.6,2-0.8,3.1-0.8
			c0.7,0,1.3,0.1,1.7,0.4c0.5,0.3,0.9,0.6,1.1,1.1c0.3,0.5,0.5,1,0.6,1.7s0.2,1.4,0.2,2.2V155.7z"/>
		<path class="st0" d="M567.9,155.9c-0.9,0-1.6-0.2-2.4-0.5c-0.7-0.4-1.4-0.8-1.9-1.4s-0.9-1.3-1.2-2c-0.3-0.8-0.4-1.6-0.4-2.4
			c0-0.9,0.1-1.7,0.4-2.5s0.7-1.5,1.2-2.1s1.1-1,1.8-1.4c0.7-0.3,1.4-0.5,2.3-0.5c1,0,2,0.3,2.8,0.8s1.4,1.2,1.9,2v-7.6h1.6v15.2
			c0,0.4,0.2,0.7,0.6,0.7v1.4c-0.2,0-0.4,0.1-0.6,0.1c-0.4,0-0.7-0.1-1-0.4c-0.3-0.2-0.4-0.5-0.4-0.9v-1.2c-0.5,0.8-1.2,1.4-2,1.9
			C569.7,155.7,568.8,155.9,567.9,155.9z M568.3,154.5c0.4,0,0.8-0.1,1.3-0.2s0.9-0.4,1.3-0.7s0.7-0.6,1-1s0.4-0.8,0.5-1.2v-3.8
			c-0.2-0.4-0.4-0.8-0.7-1.2s-0.6-0.7-1-1s-0.8-0.5-1.2-0.7s-0.9-0.2-1.3-0.2c-0.7,0-1.3,0.1-1.8,0.4c-0.5,0.3-1,0.7-1.4,1.1
			c-0.4,0.5-0.7,1-0.9,1.6s-0.3,1.2-0.3,1.9s0.1,1.3,0.4,1.9c0.2,0.6,0.6,1.1,1,1.6s0.9,0.8,1.5,1.1
			C567,154.4,567.6,154.5,568.3,154.5z"/>
		<path class="st0" d="M598.3,155.9c-0.9,0-1.6-0.2-2.4-0.5c-0.7-0.4-1.4-0.8-1.9-1.4s-0.9-1.3-1.2-2c-0.3-0.8-0.4-1.6-0.4-2.4
			c0-0.9,0.1-1.7,0.4-2.5s0.7-1.5,1.2-2.1s1.1-1,1.8-1.4c0.7-0.3,1.4-0.5,2.3-0.5c1,0,2,0.3,2.8,0.8s1.4,1.2,1.9,2v-7.6h1.6v15.2
			c0,0.4,0.2,0.7,0.6,0.7v1.4c-0.2,0-0.4,0.1-0.6,0.1c-0.4,0-0.7-0.1-1-0.4c-0.3-0.2-0.4-0.5-0.4-0.9v-1.2c-0.5,0.8-1.2,1.4-2,1.9
			C600,155.7,599.2,155.9,598.3,155.9z M598.6,154.5c0.4,0,0.8-0.1,1.3-0.2s0.9-0.4,1.3-0.7s0.7-0.6,1-1s0.4-0.8,0.5-1.2v-3.8
			c-0.2-0.4-0.4-0.8-0.7-1.2s-0.6-0.7-1-1s-0.8-0.5-1.2-0.7s-0.9-0.2-1.3-0.2c-0.7,0-1.3,0.1-1.8,0.4c-0.5,0.3-1,0.7-1.4,1.1
			c-0.4,0.5-0.7,1-0.9,1.6s-0.3,1.2-0.3,1.9s0.1,1.3,0.4,1.9c0.2,0.6,0.6,1.1,1,1.6s0.9,0.8,1.5,1.1
			C597.4,154.4,598,154.5,598.6,154.5z"/>
		<path class="st0" d="M618,155.9c-0.9,0-1.7-0.2-2.5-0.5s-1.4-0.8-2-1.4c-0.6-0.6-1-1.3-1.3-2.1s-0.5-1.6-0.5-2.5s0.2-1.7,0.5-2.5
			s0.7-1.4,1.3-2c0.5-0.6,1.2-1,2-1.4c0.8-0.3,1.6-0.5,2.5-0.5s1.7,0.2,2.5,0.5s1.4,0.8,1.9,1.4c0.5,0.6,1,1.3,1.3,2
			c0.3,0.8,0.5,1.6,0.5,2.4c0,0.1,0,0.3,0,0.4c0,0.1,0,0.2,0,0.3h-10.6c0,0.7,0.2,1.3,0.5,1.8c0.3,0.6,0.6,1,1,1.5
			c0.4,0.4,0.9,0.7,1.4,1c0.5,0.2,1.1,0.3,1.7,0.3c0.4,0,0.8-0.1,1.2-0.2c0.4-0.1,0.8-0.3,1.1-0.5s0.6-0.4,0.9-0.7
			c0.3-0.3,0.5-0.6,0.6-0.9l1.4,0.4c-0.2,0.5-0.5,0.9-0.8,1.2s-0.8,0.7-1.2,1c-0.5,0.3-1,0.5-1.5,0.6
			C619.2,155.8,618.6,155.9,618,155.9z M622.6,148.8c0-0.7-0.2-1.3-0.5-1.8s-0.6-1-1-1.4s-0.9-0.7-1.4-0.9s-1.1-0.3-1.7-0.3
			c-0.6,0-1.2,0.1-1.7,0.3s-1,0.5-1.4,0.9s-0.7,0.9-1,1.4c-0.2,0.6-0.4,1.2-0.4,1.8H622.6z"/>
		<path class="st0" d="M634.8,155.7l-5-12.4h1.7l4.3,10.9l4.3-10.9h1.6l-5,12.4H634.8z"/>
		<path class="st0" d="M653.4,155.9c-0.9,0-1.7-0.2-2.5-0.5s-1.4-0.8-2-1.4c-0.6-0.6-1-1.3-1.3-2.1s-0.5-1.6-0.5-2.5
			s0.2-1.7,0.5-2.5s0.7-1.4,1.3-2c0.5-0.6,1.2-1,2-1.4c0.8-0.3,1.6-0.5,2.5-0.5s1.7,0.2,2.5,0.5s1.4,0.8,1.9,1.4
			c0.5,0.6,1,1.3,1.3,2c0.3,0.8,0.5,1.6,0.5,2.4c0,0.1,0,0.3,0,0.4c0,0.1,0,0.2,0,0.3H649c0,0.7,0.2,1.3,0.5,1.8
			c0.3,0.6,0.6,1,1,1.5c0.4,0.4,0.9,0.7,1.4,1c0.5,0.2,1.1,0.3,1.7,0.3c0.4,0,0.8-0.1,1.2-0.2c0.4-0.1,0.8-0.3,1.1-0.5
			s0.6-0.4,0.9-0.7c0.3-0.3,0.5-0.6,0.6-0.9l1.4,0.4c-0.2,0.5-0.5,0.9-0.8,1.2s-0.8,0.7-1.2,1c-0.5,0.3-1,0.5-1.5,0.6
			C654.6,155.8,654,155.9,653.4,155.9z M657.9,148.8c0-0.7-0.2-1.3-0.5-1.8s-0.6-1-1-1.4s-0.9-0.7-1.4-0.9s-1.1-0.3-1.7-0.3
			c-0.6,0-1.2,0.1-1.7,0.3s-1,0.5-1.4,0.9s-0.7,0.9-1,1.4c-0.2,0.6-0.4,1.2-0.4,1.8H657.9z"/>
		<path class="st0" d="M666.8,138.3h1.6v14.5c0,0.5,0.1,0.8,0.4,1.1c0.3,0.3,0.6,0.4,1.1,0.4c0.2,0,0.4,0,0.6-0.1s0.5-0.1,0.7-0.2
			l0.3,1.3c-0.3,0.1-0.7,0.2-1.1,0.3s-0.8,0.1-1.1,0.1c-0.7,0-1.3-0.2-1.8-0.6c-0.4-0.4-0.6-1-0.6-1.8v-15H666.8z"/>
		<path class="st0" d="M683.2,155.9c-0.9,0-1.7-0.2-2.5-0.5c-0.7-0.3-1.4-0.8-1.9-1.4c-0.5-0.6-1-1.3-1.3-2
			c-0.3-0.8-0.5-1.6-0.5-2.4c0-0.9,0.2-1.7,0.5-2.5s0.7-1.5,1.3-2c0.5-0.6,1.2-1.1,1.9-1.4c0.7-0.3,1.6-0.5,2.4-0.5
			c0.9,0,1.7,0.2,2.5,0.5s1.4,0.8,1.9,1.4c0.5,0.6,1,1.3,1.3,2c0.3,0.8,0.5,1.6,0.5,2.5s-0.2,1.7-0.5,2.4s-0.7,1.5-1.3,2
			c-0.5,0.6-1.2,1-1.9,1.4C684.9,155.7,684.1,155.9,683.2,155.9z M678.7,149.5c0,0.7,0.1,1.3,0.4,1.9c0.2,0.6,0.6,1.1,1,1.6
			s0.9,0.8,1.4,1.1s1.1,0.4,1.7,0.4c0.6,0,1.2-0.1,1.7-0.4c0.5-0.3,1-0.6,1.4-1.1s0.7-1,1-1.6s0.4-1.3,0.4-1.9
			c0-0.7-0.1-1.3-0.4-1.9s-0.6-1.1-1-1.6s-0.9-0.8-1.4-1.1s-1.1-0.4-1.7-0.4c-0.6,0-1.2,0.1-1.7,0.4c-0.5,0.3-1,0.6-1.4,1.1
			s-0.7,1-1,1.6C678.8,148.2,678.7,148.9,678.7,149.5z"/>
		<path class="st0" d="M703.1,155.9c-1,0-2-0.3-2.8-0.8s-1.4-1.2-1.9-2v7.6h-1.6v-17.4h1.4v2.4c0.5-0.8,1.2-1.4,2-1.9
			s1.7-0.7,2.6-0.7c0.9,0,1.6,0.2,2.4,0.5s1.3,0.8,1.9,1.4s0.9,1.3,1.2,2.1s0.4,1.6,0.4,2.4c0,0.9-0.1,1.7-0.4,2.5s-0.7,1.5-1.2,2
			c-0.5,0.6-1.1,1-1.8,1.4C704.7,155.7,704,155.9,703.1,155.9z M702.7,154.5c0.7,0,1.3-0.1,1.8-0.4c0.5-0.3,1-0.7,1.4-1.1
			s0.7-1,0.9-1.6s0.3-1.2,0.3-1.8c0-0.7-0.1-1.3-0.4-1.9c-0.2-0.6-0.6-1.1-1-1.6s-0.9-0.8-1.5-1.1s-1.2-0.4-1.8-0.4
			c-0.4,0-0.8,0.1-1.3,0.2c-0.5,0.2-0.9,0.4-1.3,0.7c-0.4,0.3-0.7,0.6-1,1s-0.4,0.8-0.5,1.2v3.8c0.2,0.4,0.4,0.9,0.7,1.2
			c0.3,0.4,0.6,0.7,1,1s0.8,0.5,1.2,0.7C701.8,154.4,702.2,154.5,702.7,154.5z"/>
		<path class="st0" d="M721.6,155.9c-0.9,0-1.7-0.2-2.5-0.5s-1.4-0.8-2-1.4c-0.6-0.6-1-1.3-1.3-2.1s-0.5-1.6-0.5-2.5
			s0.2-1.7,0.5-2.5s0.7-1.4,1.3-2c0.5-0.6,1.2-1,2-1.4c0.8-0.3,1.6-0.5,2.5-0.5s1.7,0.2,2.5,0.5s1.4,0.8,1.9,1.4
			c0.5,0.6,1,1.3,1.3,2c0.3,0.8,0.5,1.6,0.5,2.4c0,0.1,0,0.3,0,0.4c0,0.1,0,0.2,0,0.3h-10.6c0,0.7,0.2,1.3,0.5,1.8
			c0.3,0.6,0.6,1,1,1.5c0.4,0.4,0.9,0.7,1.4,1c0.5,0.2,1.1,0.3,1.7,0.3c0.4,0,0.8-0.1,1.2-0.2c0.4-0.1,0.8-0.3,1.1-0.5
			s0.6-0.4,0.9-0.7c0.3-0.3,0.5-0.6,0.6-0.9l1.4,0.4c-0.2,0.5-0.5,0.9-0.8,1.2s-0.8,0.7-1.2,1c-0.5,0.3-1,0.5-1.5,0.6
			C722.8,155.8,722.2,155.9,721.6,155.9z M726.1,148.8c0-0.7-0.2-1.3-0.5-1.8s-0.6-1-1-1.4s-0.9-0.7-1.4-0.9s-1.1-0.3-1.7-0.3
			c-0.6,0-1.2,0.1-1.7,0.3s-1,0.5-1.4,0.9s-0.7,0.9-1,1.4c-0.2,0.6-0.4,1.2-0.4,1.8H726.1z"/>
		<path class="st0" d="M741.1,144.7c-1.1,0-2,0.3-2.9,0.9s-1.4,1.4-1.7,2.4v7.7h-1.6v-12.4h1.5v3c0.5-1,1.1-1.7,1.9-2.2
			c0.8-0.5,1.6-0.8,2.5-0.8c0.1,0,0.2,0,0.3,0V144.7z"/>
	</g>
	<g>
		<path class="st0" d="M291.6,56.7l-1.1-6.9c-2.2,5.3-6.8,7.9-13.6,7.9c-5.7,0-10-2-13.2-6.1c-3.1-4.1-4.7-10.1-4.7-18.2
			c0-16.4,6.5-24.5,19.5-24.5c5.8,0,9.6,1.6,11.4,4.8v-29.1h-6v-1.8h24.6v72.1h4.8v1.8H291.6z M279.1,50c0.7,2.3,2.1,3.4,4,3.4
			s3.6-0.9,5-2.6c1.4-1.7,2.1-4.2,2.1-7.6V21.7c0-2.8-0.6-5.2-1.7-7.2s-2.8-3-4.9-3c-2.2,0-3.6,1.4-4.4,4.3S278,23.7,278,31v5.1
			C278.1,43.2,278.4,47.8,279.1,50z"/>
		<path class="st0" d="M323.1,51.4c-4.2-4.2-6.3-10.2-6.3-18.1s2.2-13.9,6.7-18.1s10.8-6.4,19-6.4s14.2,2,18.2,5.9s6,9.9,6,17.9
			c0,16.8-8.3,25.1-25,25.1C333.5,57.7,327.3,55.6,323.1,51.4z M347.8,37.3v-8.4c0-6.4-0.3-11-1-13.9s-2.3-4.4-4.8-4.4
			c-1.4,0-2.6,0.4-3.5,1.2c-0.9,0.8-1.5,2.2-1.9,4.1c-0.6,3-0.9,7.5-0.9,13.5v7.7c0,7.2,0.2,11.5,0.6,12.9s0.9,2.6,1.3,3.5
			c0.7,1.6,2.1,2.4,4.2,2.4c2.6,0,4.2-1.5,5-4.4C347.5,49.4,347.8,44.6,347.8,37.3z"/>
		<path class="st0" d="M427.1,56.7h-22.5l-1.1-7.2c-1.1,2.6-2.6,4.6-4.7,6.1c-2.1,1.4-5.1,2.1-9.2,2.1c-10.2,0-15.3-5.5-15.3-16.5
			V11.6h-5.5V9.8h23.8v33.8c0,3.9,0.3,6.5,0.8,7.8c0.6,1.2,1.7,1.9,3.4,1.9c1.7,0,3.2-1,4.5-3.1c1.3-2,2-4.9,2-8.5V11.6h-4.5V9.8
			h22.9v45.1h5.4L427.1,56.7L427.1,56.7z"/>
		<path class="st0" d="M468.6,4.7l2.8-1.7c0.4-2-0.4-3.1-2.4-3.1c-2.8,0-4.2,2.2-4.2,6.5c0,1.7,0.2,3.7,0.7,5.9
			c5,3.4,7.5,7.6,7.5,12.9c0,5.2-1.8,9.3-5.4,12.2c-3.6,2.9-8.5,4.3-14.7,4.3c-2.6,0-5.2-0.3-8-0.8c-2.9,1.8-4.3,3.2-4.3,4.1
			s2.1,1.4,6.3,1.4h10c14.9,0,22.4,5.4,22.4,16.1c0,5.8-2.3,10.4-6.7,13.7c-4.5,3.4-11.5,5.1-21,5.1c-16.2,0-24.3-3.5-24.3-10.5
			c0-3.8,2.5-6.4,7.6-7.9l5.9,2.7c-0.5,1.9-0.8,3.7-0.8,5.4c0,5.6,4.2,8.5,12.6,8.5c5.1,0,9.1-1,11.8-2.9c2.8-1.9,4.1-4.3,4.1-7.1
			s-0.8-4.7-2.5-5.7s-5-1.4-10-1.4h-9.7c-5.3,0-9.1-0.9-11.4-2.7c-2.3-1.8-3.4-4-3.4-6.6s0.8-4.8,2.5-6.5c1.6-1.7,4.6-3.9,8.8-6.5
			c-7.6-2.2-11.4-7.2-11.4-15c0-4.9,1.8-8.9,5.3-11.9s8.9-4.5,16-4.5c4.3,0,7.9,0.8,10.9,2.5c-0.4-1.8-0.6-3.4-0.6-4.8
			c0-3.7,1-6.3,3-8c2-1.6,4.2-2.5,6.6-2.5c2.4,0,4.4,0.6,5.9,1.9s2.2,3,2.2,5.3c0,2.2-0.6,3.9-1.8,5s-2.6,1.6-4.3,1.6
			s-3.1-0.4-4.1-1.3C469.2,7.6,468.7,6.3,468.6,4.7z M447.7,23.1v5.3c0,4.4,0.4,7.4,1.1,9c0.8,1.6,1.9,2.4,3.4,2.4s2.7-0.8,3.4-2.3
			s1-4.7,1-9.5v-4.8c0-5.1-0.3-8.5-1-10.1s-1.8-2.4-3.3-2.4s-2.7,0.8-3.5,2.5C448.1,14.8,447.7,18.1,447.7,23.1z"/>
		<path class="st0" d="M480.1-17.2h24.2v72.1h5.5v1.8h-29.3v-1.8h5.4v-70.3h-5.8L480.1-17.2L480.1-17.2z"/>
		<path class="st0" d="M535.3,33.5h2.9v-7.6c0-6.2-0.3-10.4-1-12.6c-0.7-2.1-2-3.2-4-3.2c-1.2,0-2.3,0.3-3.2,0.9
			c-1,0.6-1.4,1.5-1.4,2.6s0.2,2.2,0.6,3.3h2.5c0.5,1.4,0.8,3,0.8,5c0,1.9-0.8,3.6-2.5,5c-1.6,1.4-3.7,2.1-6.2,2.1
			c-5.6,0-8.5-2.7-8.5-8.2c0-8.1,6.9-12.1,20.6-12.1c7.8,0,13.2,1.3,16.2,4s4.5,7.5,4.5,14.6v20c0,3.4,1,5.1,2.9,5.1
			c2.2,0,3.5-3.4,3.9-10.1l1.5,0.1c-0.3,5.8-1.3,9.8-3.3,11.9c-1.9,2.2-5,3.3-9.4,3.3c-7.9,0-12.4-2.4-13.6-7.3
			c-0.9,2.5-2.1,4.3-3.8,5.5s-4.2,1.8-7.5,1.8c-9.7,0-14.6-4-14.6-11.9c0-4.7,1.9-7.9,5.6-9.6C521.9,34.4,527.6,33.5,535.3,33.5z
			 M531.9,52.3c0.4,1,1.1,1.5,2.1,1.5s2-0.8,2.9-2.5s1.3-4,1.3-6.9v-9.2h-0.7c-4.1,0-6.1,3-6.1,9v1.6
			C531.4,49.1,531.5,51.3,531.9,52.3z"/>
		<path class="st0" d="M568,57.7V40.1h1.2c1.7,5.7,4,9.7,6.9,12c2.9,2.3,6.5,3.4,10.8,3.4c6.7,0,10-2.1,10-6.4
			c0-1.8-0.8-3.2-2.5-4.1c-2.6-1.4-5.8-2.6-9.9-3.4c-4.5-1.2-8.2-2.8-11.2-4.7c-3.6-2.4-5.4-6.1-5.4-11.2s1.6-9.2,4.7-12.3
			c3.2-3.1,7.4-4.6,12.6-4.6c3.2,0,6.5,0.8,10,2.3c1.2,0.5,2.2,0.8,2.9,0.8s1.2-0.2,1.7-0.7s1-1.3,1.7-2.6h1.1v15.1h-1.2
			c-3.4-8.5-8.5-12.8-15.6-12.8c-3.1,0-5.4,0.5-6.9,1.6s-2.3,2.4-2.3,4.1c0,1,0.2,1.8,0.7,2.3c0.5,0.6,0.8,1,1.1,1.2
			c0.3,0.3,0.7,0.5,1.3,0.8s1.1,0.5,1.5,0.7s1,0.4,1.8,0.6c0.8,0.3,1.4,0.4,1.8,0.5c4.5,1.1,7.7,2.1,9.7,2.9s3.8,1.8,5.6,3
			c3.6,2.5,5.4,6.5,5.4,12.1s-1.6,9.8-4.9,12.6c-3.3,2.9-7.8,4.3-13.5,4.3c-4.1,0-8-1-11.8-2.9c-0.8-0.5-1.4-0.8-1.9-0.8
			c-1.4,0-2.9,1.2-4.2,3.6H568V57.7z"/>
		<path class="st0" d="M642,56.7l-1.1-6.9c-2.2,5.3-6.8,7.9-13.6,7.9c-5.7,0-10-2-13.2-6.1c-3.1-4.1-4.7-10.1-4.7-18.2
			c0-16.4,6.5-24.5,19.5-24.5c5.8,0,9.6,1.6,11.4,4.8v-29.1h-6v-1.8h24.6v72.1h4.8v1.8H642z M629.6,50c0.7,2.3,2.1,3.4,4,3.4
			s3.6-0.9,5-2.6c1.4-1.7,2.1-4.2,2.1-7.6V21.7c0-2.8-0.6-5.2-1.7-7.2c-1.1-2-2.8-3-4.9-3s-3.6,1.4-4.4,4.3
			c-0.8,2.9-1.2,7.9-1.2,15.2v5.1C628.5,43.2,628.9,47.8,629.6,50z"/>
		<path class="st0" d="M667.7,57.7V40.1h1.2c1.7,5.7,4,9.7,6.9,12c2.9,2.3,6.5,3.4,10.8,3.4c6.7,0,10-2.1,10-6.4
			c0-1.8-0.8-3.2-2.5-4.1c-2.6-1.4-5.8-2.6-9.9-3.4c-4.5-1.2-8.2-2.8-11.2-4.7c-3.6-2.4-5.4-6.1-5.4-11.2s1.6-9.2,4.7-12.3
			c3.2-3.1,7.4-4.6,12.6-4.6c3.2,0,6.5,0.8,10,2.3c1.2,0.5,2.2,0.8,2.9,0.8s1.2-0.2,1.7-0.7s1-1.3,1.7-2.6h1.1v15.1h-1.2
			c-3.4-8.5-8.5-12.8-15.6-12.8c-3.1,0-5.4,0.5-6.9,1.6s-2.3,2.4-2.3,4.1c0,1,0.2,1.8,0.7,2.3c0.5,0.6,0.8,1,1.1,1.2
			c0.3,0.3,0.7,0.5,1.3,0.8s1.1,0.5,1.5,0.7s1,0.4,1.8,0.6c0.8,0.3,1.4,0.4,1.8,0.5c4.5,1.1,7.7,2.1,9.7,2.9s3.8,1.8,5.6,3
			c3.6,2.5,5.4,6.5,5.4,12.1s-1.6,9.8-4.9,12.6c-3.3,2.9-7.8,4.3-13.5,4.3c-4.1,0-8-1-11.8-2.9c-0.8-0.5-1.4-0.8-1.9-0.8
			c-1.4,0-2.9,1.2-4.2,3.6h-1.2V57.7z"/>
		<path class="st0" d="M732-17.2v34.5c2.5-5.7,6.8-8.5,12.8-8.5c12.3,0,18.4,8.2,18.4,24.5c0,8.3-1.7,14.5-5.1,18.4
			c-3.4,3.9-8.5,5.9-15.2,5.9c-3.4,0-6-0.5-7.8-1.6s-3-2.8-3.7-5.2l-0.7,5.8h-22.5v-1.8h5.4v-70.2h-5.4v-1.8H732z M743.2,16.5
			c-0.7-2.3-1.9-3.5-3.8-3.5c-1.9,0-3.6,1.2-5.1,3.5c-1.5,2.4-2.3,5.6-2.3,9.8v18.3c0,2.8,0.6,5.2,1.7,7.2c1.1,2,2.8,3,4.9,3
			c2.1,0,3.6-1.4,4.4-4.3c0.8-2.9,1.2-7.9,1.2-15.2v-5.1C744.2,23.4,743.9,18.9,743.2,16.5z"/>
		<path class="st0" d="M799.1,12.6c-2.4,0-4.6,1.6-6.4,4.7c-1.8,3.2-2.8,6.9-2.8,11.2v26.4h7v1.8h-30.7v-1.8h5.4V11.6h-5.4V9.8h23.7
			v9.5c0.9-3.4,2.5-5.9,4.9-7.7c2.4-1.8,5.2-2.7,8.3-2.7s5.6,0.9,7.5,2.6s2.9,4.2,2.9,7.4c0,3.2-0.7,5.6-2.2,7.3
			c-1.4,1.7-3.7,2.6-6.7,2.6s-5.2-1-6.6-3c-1.4-2-1.6-4.7-0.5-8.2h3.5C802.8,14.2,802.1,12.6,799.1,12.6z"/>
		<path class="st0" d="M837.1,33.5h2.9v-7.6c0-6.2-0.3-10.4-1-12.6c-0.7-2.1-2-3.2-4-3.2c-1.2,0-2.3,0.3-3.2,0.9
			c-1,0.6-1.4,1.5-1.4,2.6s0.2,2.2,0.6,3.3h2.5c0.5,1.4,0.8,3,0.8,5c0,1.9-0.8,3.6-2.5,5c-1.6,1.4-3.7,2.1-6.2,2.1
			c-5.6,0-8.5-2.7-8.5-8.2c0-8.1,6.9-12.1,20.6-12.1c7.8,0,13.2,1.3,16.2,4s4.5,7.5,4.5,14.6v20c0,3.4,1,5.1,2.9,5.1
			c2.2,0,3.5-3.4,3.9-10.1l1.5,0.1c-0.3,5.8-1.3,9.8-3.3,11.9c-1.9,2.2-5,3.3-9.4,3.3c-7.9,0-12.4-2.4-13.6-7.3
			c-0.9,2.5-2.1,4.3-3.8,5.5s-4.2,1.8-7.5,1.8c-9.7,0-14.6-4-14.6-11.9c0-4.7,1.9-7.9,5.6-9.6C823.7,34.4,829.4,33.5,837.1,33.5z
			 M833.7,52.3c0.4,1,1.1,1.5,2.1,1.5s2-0.8,2.9-2.5s1.3-4,1.3-6.9v-9.2h-0.7c-4.1,0-6.1,3-6.1,9v1.6
			C833.2,49.1,833.3,51.3,833.7,52.3z"/>
		<path class="st0" d="M906.6,4.7l2.8-1.7c0.4-2-0.4-3.1-2.4-3.1c-2.8,0-4.2,2.2-4.2,6.5c0,1.7,0.2,3.7,0.7,5.9
			c5,3.4,7.5,7.6,7.5,12.9c0,5.2-1.8,9.3-5.4,12.2c-3.6,2.9-8.5,4.3-14.7,4.3c-2.6,0-5.2-0.3-8-0.8c-2.9,1.8-4.3,3.2-4.3,4.1
			s2.1,1.4,6.3,1.4h10c14.9,0,22.4,5.4,22.4,16.1c0,5.8-2.3,10.4-6.7,13.7c-4.5,3.4-11.5,5.1-21,5.1c-16.2,0-24.3-3.5-24.3-10.5
			c0-3.8,2.5-6.4,7.6-7.9l5.9,2.7c-0.5,1.9-0.8,3.7-0.8,5.4c0,5.6,4.2,8.5,12.6,8.5c5.1,0,9.1-1,11.8-2.9c2.8-1.9,4.1-4.3,4.1-7.1
			s-0.8-4.7-2.5-5.7s-5-1.4-10-1.4h-9.7c-5.3,0-9.1-0.9-11.4-2.7c-2.3-1.8-3.4-4-3.4-6.6s0.8-4.8,2.5-6.5c1.6-1.7,4.6-3.9,8.8-6.5
			c-7.6-2.2-11.4-7.2-11.4-15c0-4.9,1.8-8.9,5.3-11.9s8.9-4.5,16-4.5c4.3,0,7.9,0.8,10.9,2.5c-0.4-1.8-0.6-3.4-0.6-4.8
			c0-3.7,1-6.3,3-8c2-1.6,4.2-2.5,6.6-2.5c2.4,0,4.4,0.6,5.9,1.9s2.2,3,2.2,5.3c0,2.2-0.6,3.9-1.8,5s-2.6,1.6-4.3,1.6
			s-3.1-0.4-4.1-1.3C907.2,7.6,906.6,6.3,906.6,4.7z M885.7,23.1v5.3c0,4.4,0.4,7.4,1.1,9c0.8,1.6,1.9,2.4,3.4,2.4s2.7-0.8,3.4-2.3
			s1-4.7,1-9.5v-4.8c0-5.1-0.3-8.5-1-10.1s-1.8-2.4-3.3-2.4s-2.7,0.8-3.5,2.5C886.1,14.8,885.7,18.1,885.7,23.1z"/>
		<path class="st0" d="M939.7,33.5h2.9v-7.6c0-6.2-0.3-10.4-1-12.6c-0.7-2.1-2-3.2-4-3.2c-1.2,0-2.3,0.3-3.2,0.9
			c-1,0.6-1.4,1.5-1.4,2.6s0.2,2.2,0.6,3.3h2.5c0.5,1.4,0.8,3,0.8,5c0,1.9-0.8,3.6-2.5,5c-1.6,1.4-3.7,2.1-6.2,2.1
			c-5.6,0-8.5-2.7-8.5-8.2c0-8.1,6.9-12.1,20.6-12.1c7.8,0,13.2,1.3,16.2,4s4.5,7.5,4.5,14.6v20c0,3.4,1,5.1,2.9,5.1
			c2.2,0,3.5-3.4,3.9-10.1l1.5,0.1c-0.3,5.8-1.3,9.8-3.3,11.9c-1.9,2.2-5,3.3-9.4,3.3c-7.9,0-12.4-2.4-13.6-7.3
			c-0.9,2.5-2.1,4.3-3.8,5.5s-4.2,1.8-7.5,1.8c-9.7,0-14.6-4-14.6-11.9c0-4.7,1.9-7.9,5.6-9.6C926.3,34.4,932,33.5,939.7,33.5z
			 M936.3,52.3c0.4,1,1.1,1.5,2.1,1.5s2-0.8,2.9-2.5s1.3-4,1.3-6.9v-9.2h-0.7c-4.1,0-6.1,3-6.1,9v1.6
			C935.7,49.1,935.9,51.3,936.3,52.3z"/>
	</g>
	<g>
		<path class="st0" d="M-67.4,95.2c0.7-0.2,1.4-0.2,2.1-0.1c0.7,0.1,1.3,0.3,1.8,0.7c0.6,0.4,1,0.8,1.4,1.4c0.4,0.6,0.7,1.3,0.9,2.1
			l0.9,3.9l-10.1,2.4l-0.9-3.9c-0.2-0.8-0.2-1.5-0.1-2.2s0.3-1.3,0.6-1.9c0.3-0.6,0.8-1,1.3-1.4C-68.8,95.6-68.1,95.3-67.4,95.2z
			 M-66.9,97.1c-0.6,0.1-1,0.3-1.4,0.6c-0.4,0.3-0.7,0.6-1,0.9c-0.3,0.3-0.4,0.8-0.5,1.2c-0.1,0.4,0,0.9,0.1,1.4l0.5,2l7.1-1.7
			l-0.5-2c-0.1-0.5-0.3-0.9-0.6-1.3c-0.3-0.4-0.6-0.7-0.9-0.9c-0.4-0.2-0.8-0.3-1.3-0.4C-65.8,97-66.3,97-66.9,97.1z"/>
		<path class="st0" d="M-63.8,84.7l0.3,2L-73.7,88l-0.3-2L-63.8,84.7z"/>
		<path class="st0" d="M-70.1,68.2l4.2-0.2c0.4,0.5,0.7,1.1,0.9,1.7c0.2,0.6,0.3,1.3,0.3,1.9c0,0.9-0.1,1.7-0.3,2.4s-0.6,1.3-1,1.8
			s-1,0.9-1.6,1.2s-1.3,0.5-2.1,0.5c-0.8,0-1.5-0.1-2.2-0.3c-0.7-0.2-1.2-0.6-1.7-1s-0.9-1-1.2-1.7c-0.3-0.7-0.4-1.4-0.5-2.3
			c0-0.4,0-0.8,0.1-1.2c0.1-0.4,0.1-0.7,0.2-1.1c0.1-0.3,0.2-0.6,0.4-0.9c0.2-0.3,0.3-0.5,0.5-0.7l0.9,0.5c0.1,0.1,0.2,0.2,0.3,0.3
			c0,0.1,0,0.3-0.1,0.5s-0.2,0.3-0.3,0.5c-0.1,0.2-0.2,0.3-0.2,0.5c-0.1,0.2-0.1,0.4-0.1,0.7c0,0.2,0,0.5,0,0.9c0,0.5,0.1,1,0.3,1.4
			c0.2,0.4,0.4,0.8,0.8,1.1c0.3,0.3,0.7,0.5,1.2,0.6s1,0.2,1.5,0.2c0.6,0,1.1-0.1,1.6-0.3s0.8-0.5,1.2-0.8c0.3-0.3,0.5-0.7,0.7-1.2
			c0.2-0.5,0.2-1,0.2-1.5c0-0.4-0.1-0.7-0.2-1c-0.1-0.3-0.2-0.6-0.4-0.9l-1.9,0.1v1.3c0,0.1,0,0.2-0.1,0.3c-0.1,0.1-0.1,0.1-0.2,0.1
			H-70L-70.1,68.2z"/>
		<path class="st0" d="M-64.6,58.4l-0.1,2L-75,59.8l0.1-2L-64.6,58.4z"/>
		<path class="st0" d="M-71.3,41.8l-0.5,3.2l8.7,1.3l-0.3,2l-8.7-1.3l-0.5,3.2l-1.6-0.2l1.3-8.3L-71.3,41.8z"/>
		<path class="st0" d="M-59.1,28.4l-0.4,1.5c0,0.2-0.1,0.3-0.2,0.4c-0.1,0.1-0.2,0.1-0.4,0.2l-2.2,0.2l-1.1,4.3l1.8,1.3
			c0.1,0.1,0.2,0.2,0.2,0.3c0.1,0.1,0.1,0.3,0,0.4l-0.4,1.5l-8.9-6.7l0.5-1.9L-59.1,28.4z M-63.8,30.8l-3.7,0.4
			c-0.2,0-0.4,0-0.6,0.1c-0.2,0-0.5,0-0.7,0c0.2,0.1,0.4,0.2,0.6,0.4c0.2,0.1,0.3,0.2,0.5,0.3l3,2.1L-63.8,30.8z"/>
		<path class="st0" d="M-56.2,15.7l1.5,0.6l-2.2,5.8l-9.6-3.7l0.7-1.8l8.2,3.1L-56.2,15.7z"/>
		<path class="st0" d="M-47.2-8.8c0.6,0.4,1.2,0.9,1.6,1.4c0.4,0.6,0.7,1.1,0.8,1.8c0.1,0.6,0.2,1.3,0,2c-0.1,0.7-0.4,1.4-0.8,2.1
			L-47.7,2l-8.8-5.4l2.1-3.5c0.4-0.7,0.9-1.2,1.5-1.7c0.6-0.4,1.2-0.7,1.8-0.9c0.6-0.2,1.3-0.2,2-0.1C-48.5-9.4-47.9-9.1-47.2-8.8z
			 M-48.3-7c-0.5-0.3-1-0.5-1.4-0.6c-0.5-0.1-0.9-0.1-1.3,0c-0.4,0.1-0.8,0.3-1.2,0.5c-0.4,0.3-0.7,0.6-0.9,1.1l-1.1,1.8l6.2,3.8
			l1.1-1.8c0.3-0.4,0.4-0.9,0.5-1.3s0.1-0.9-0.1-1.3c-0.1-0.4-0.3-0.8-0.6-1.2C-47.4-6.4-47.8-6.7-48.3-7z"/>
		<path class="st0" d="M-44.2-19l2.3,1.8l2.3-2.9l1.2,0.9l-2.3,2.9l2.3,1.8l2.9-3.7l1.2,1l-4.1,5.3l-8.1-6.4l4.1-5.3l1.2,0.9
			L-44.2-19z"/>
		<path class="st0" d="M-31.5-32.7c0,0.1,0,0.2,0,0.3s-0.1,0.2-0.1,0.2c-0.1,0.1-0.2,0.1-0.3,0.2c-0.1,0-0.3,0.1-0.5,0.1
			c-0.2,0.1-0.4,0.1-0.6,0.2c-0.2,0.1-0.4,0.3-0.6,0.5c-0.2,0.2-0.3,0.4-0.4,0.6c-0.1,0.2-0.2,0.4-0.2,0.6c0,0.2,0,0.3,0.1,0.5
			s0.2,0.3,0.3,0.4c0.2,0.2,0.4,0.3,0.6,0.3c0.2,0,0.4,0,0.7-0.1c0.2-0.1,0.5-0.2,0.8-0.3c0.3-0.1,0.6-0.3,0.8-0.4
			c0.3-0.1,0.6-0.3,0.9-0.4c0.3-0.1,0.6-0.2,0.9-0.2c0.3,0,0.6,0,0.9,0.1c0.3,0.1,0.6,0.3,0.9,0.6c0.3,0.3,0.6,0.7,0.8,1.1
			c0.2,0.4,0.3,0.8,0.3,1.3c0,0.4-0.1,0.9-0.3,1.3c-0.2,0.4-0.5,0.9-0.9,1.3c-0.2,0.2-0.5,0.5-0.8,0.6c-0.3,0.2-0.6,0.4-0.9,0.5
			c-0.3,0.1-0.6,0.2-0.9,0.3c-0.3,0.1-0.6,0.1-0.9,0.1l-0.3-1.1c0-0.1,0-0.2,0-0.3s0.1-0.2,0.1-0.2c0.1-0.1,0.2-0.1,0.4-0.2
			c0.2,0,0.4-0.1,0.6-0.1s0.5-0.1,0.7-0.3c0.3-0.1,0.5-0.3,0.8-0.6c0.4-0.4,0.6-0.8,0.6-1.2s-0.1-0.8-0.5-1.1
			c-0.2-0.2-0.4-0.3-0.6-0.3s-0.5,0-0.7,0.1s-0.5,0.2-0.8,0.4s-0.5,0.3-0.8,0.5c-0.3,0.1-0.6,0.3-0.9,0.4s-0.6,0.2-0.9,0.2
			c-0.3,0-0.6,0-1-0.2c-0.3-0.1-0.7-0.4-1-0.7s-0.5-0.6-0.6-0.9c-0.1-0.4-0.2-0.7-0.2-1.1c0-0.4,0.1-0.8,0.3-1.2s0.5-0.8,0.9-1.2
			s0.9-0.8,1.4-1s1-0.4,1.5-0.4L-31.5-32.7z"/>
		<path class="st0" d="M-18-33.5l-1.5,1.3l-6.7-7.9l1.5-1.3L-18-33.5z"/>
		<path class="st0" d="M-7.4-47.7l2.4,3.5c-0.2,0.6-0.5,1.2-0.9,1.7s-0.9,0.9-1.5,1.3c-0.7,0.5-1.4,0.8-2.2,1
			c-0.7,0.2-1.4,0.2-2.1,0.1c-0.7-0.1-1.3-0.4-1.9-0.7c-0.6-0.4-1.1-0.9-1.5-1.5s-0.7-1.3-0.9-2c-0.1-0.7-0.2-1.4,0-2
			c0.1-0.7,0.4-1.3,0.8-1.9c0.4-0.6,1-1.1,1.7-1.6c0.4-0.2,0.7-0.4,1.1-0.6c0.3-0.2,0.7-0.3,1-0.4c0.3-0.1,0.7-0.1,1-0.1
			s0.6,0,0.9,0v1c0,0.2,0,0.3-0.1,0.4c-0.1,0.1-0.2,0.2-0.4,0.2c-0.2,0-0.4,0-0.6,0s-0.4,0.1-0.6,0.1c-0.2,0.1-0.4,0.1-0.6,0.2
			c-0.2,0.1-0.5,0.2-0.7,0.4c-0.4,0.3-0.8,0.6-1,1c-0.3,0.4-0.4,0.8-0.5,1.2s0,0.9,0.1,1.3c0.1,0.5,0.3,0.9,0.6,1.4
			c0.3,0.5,0.7,0.9,1.1,1.2s0.8,0.5,1.3,0.6c0.4,0.1,0.9,0.1,1.4,0s0.9-0.3,1.4-0.6c0.3-0.2,0.6-0.5,0.8-0.7
			c0.2-0.2,0.4-0.5,0.6-0.8l-1.1-1.5l-1.4,0.7c-0.1,0.1-0.2,0.1-0.3,0.1c-0.1,0-0.2-0.1-0.2-0.1l-0.6-0.9L-7.4-47.7z"/>
		<path class="st0" d="M5.3-60.5l4.6,9.2l-0.8,0.5c-0.1,0.1-0.3,0.1-0.4,0.1s-0.2,0-0.4-0.1l-8-3.7c0.2,0.3,0.3,0.5,0.4,0.8L3.5-48
			l-1.6,0.8l-4.6-9.2l0.9-0.5c0.1,0,0.1-0.1,0.2-0.1s0.1,0,0.2,0s0.1,0,0.2,0s0.1,0,0.2,0.1l8.1,3.7c-0.1-0.1-0.2-0.3-0.3-0.4
			c-0.1-0.1-0.2-0.3-0.2-0.4l-2.8-5.6L5.3-60.5z"/>
		<path class="st0" d="M16.2-63.2l1,2.7l3.5-1.2l0.5,1.4l-3.5,1.2l1,2.8l4.4-1.6l0.5,1.4l-6.3,2.2L13.8-64l6.3-2.2l0.5,1.4
			L16.2-63.2z"/>
		<path class="st0" d="M38.8-60.4L37.1-60c-0.3,0.1-0.6,0-0.8-0.2l-2.9-2.7c-0.1-0.1-0.2-0.2-0.3-0.2c-0.1,0-0.3,0-0.5,0l-0.8,0.2
			l0.9,3.9l-1.9,0.4l-2.3-10.1l3.2-0.7c0.7-0.2,1.3-0.2,1.9-0.2c0.5,0,1,0.1,1.4,0.3c0.4,0.2,0.7,0.4,0.9,0.8
			c0.2,0.3,0.4,0.7,0.5,1.1c0.1,0.3,0.1,0.7,0.1,1c0,0.3-0.1,0.6-0.3,0.9c-0.1,0.3-0.3,0.6-0.6,0.8c-0.2,0.3-0.5,0.5-0.9,0.7
			c0.1,0,0.3,0.1,0.4,0.2c0.1,0.1,0.2,0.2,0.4,0.3L38.8-60.4z M32.6-64.6c0.4-0.1,0.7-0.2,0.9-0.4c0.2-0.1,0.4-0.3,0.6-0.5
			c0.1-0.2,0.2-0.4,0.3-0.6c0-0.2,0-0.5,0-0.7c-0.1-0.5-0.4-0.9-0.8-1.1c-0.4-0.2-1-0.2-1.7,0l-1.2,0.3l0.8,3.3L32.6-64.6z"/>
		<path class="st0" d="M68.6-67.8c0,0.8-0.7,1.4-1.5,1.4s-1.4-0.7-1.4-1.5c0-0.8,0.7-1.4,1.5-1.4C68.1-69.3,68.7-68.6,68.6-67.8z"/>
		<path class="st0" d="M101.1-56.5l-1.5-0.4c-0.2,0-0.3-0.1-0.4-0.2c-0.1-0.1-0.1-0.2-0.2-0.4l-0.2-2.2l-4.2-1.2l-1.3,1.8
			c-0.1,0.1-0.2,0.2-0.3,0.2c-0.1,0.1-0.3,0.1-0.4,0l-1.5-0.4l6.8-8.8l1.9,0.5L101.1-56.5z M98.8-61.2l-0.3-3.7c0-0.2,0-0.4,0-0.6
			c0-0.2,0-0.5,0-0.7c-0.1,0.2-0.3,0.4-0.4,0.6c-0.1,0.2-0.2,0.3-0.3,0.5l-2.2,3L98.8-61.2z"/>
		<path class="st0" d="M115.1-51.1l-1.7-0.7c-0.3-0.1-0.5-0.3-0.5-0.6l-0.8-3.9c0-0.1-0.1-0.3-0.2-0.3c-0.1-0.1-0.2-0.2-0.4-0.2
			l-0.8-0.3l-1.5,3.7l-1.8-0.8l3.9-9.6l3,1.2c0.7,0.3,1.2,0.6,1.6,0.9c0.4,0.3,0.7,0.7,0.9,1.1s0.3,0.8,0.3,1.1
			c0,0.4-0.1,0.8-0.2,1.2c-0.1,0.3-0.3,0.6-0.5,0.9c-0.2,0.2-0.5,0.4-0.7,0.6c-0.3,0.2-0.6,0.3-0.9,0.3c-0.3,0.1-0.7,0.1-1.1,0
			c0.1,0.1,0.2,0.2,0.2,0.4c0.1,0.1,0.1,0.3,0.1,0.4L115.1-51.1z M112.4-58.1c0.3,0.1,0.7,0.2,1,0.2s0.5,0,0.8-0.1
			c0.2-0.1,0.4-0.2,0.6-0.4c0.2-0.2,0.3-0.4,0.4-0.6c0.2-0.5,0.2-0.9,0-1.3c-0.2-0.4-0.7-0.7-1.3-1l-1.2-0.5l-1.3,3.2L112.4-58.1z"
			/>
		<path class="st0" d="M131.6-52.3l-2.8-1.5l-4.2,7.7l-1.7-1l4.2-7.7l-2.8-1.5l0.8-1.4l7.4,4L131.6-52.3z"/>
		<path class="st0" d="M151.1-33.8c-0.5,0.6-1,1-1.6,1.4c-0.6,0.3-1.2,0.5-1.9,0.6s-1.3,0-2-0.3c-0.7-0.2-1.3-0.6-1.9-1.1l-3.1-2.6
			l6.6-8l3.1,2.6c0.6,0.5,1.1,1.1,1.5,1.7c0.4,0.6,0.6,1.3,0.6,1.9c0.1,0.7,0,1.3-0.2,2S151.6-34.4,151.1-33.8z M149.5-35.1
			c0.4-0.4,0.6-0.9,0.8-1.3c0.2-0.4,0.2-0.9,0.2-1.3c0-0.4-0.1-0.8-0.4-1.2c-0.2-0.4-0.5-0.8-0.9-1.1l-1.6-1.3l-4.6,5.6l1.6,1.3
			c0.4,0.3,0.8,0.6,1.2,0.7c0.4,0.1,0.9,0.2,1.3,0.1c0.4-0.1,0.8-0.2,1.2-0.5C148.8-34.3,149.2-34.7,149.5-35.1z"/>
		<path class="st0" d="M154.5-23.3l-1.4-1.4l7.3-7.3l1.4,1.4L154.5-23.3z"/>
		<path class="st0" d="M165.3-11l-1.1-1.4c-0.2-0.3-0.3-0.5-0.2-0.8l1.1-3.8c0-0.1,0.1-0.3,0-0.4c0-0.1-0.1-0.2-0.2-0.4l-0.5-0.7
			l-3.1,2.6l-1.3-1.5l8-6.6l2.1,2.5c0.5,0.6,0.8,1.1,1,1.6s0.3,0.9,0.3,1.4c0,0.4-0.1,0.8-0.3,1.2c-0.2,0.4-0.4,0.7-0.8,0.9
			c-0.3,0.2-0.6,0.4-0.9,0.5c-0.3,0.1-0.6,0.2-0.9,0.2c-0.3,0-0.6,0-1-0.1c-0.3-0.1-0.7-0.3-1-0.5c0,0.1,0,0.3,0,0.4s0,0.3-0.1,0.4
			L165.3-11z M166.2-18.4c0.2,0.3,0.5,0.5,0.7,0.7s0.5,0.3,0.7,0.3s0.5,0,0.7-0.1s0.4-0.2,0.6-0.4c0.4-0.3,0.6-0.7,0.6-1.2
			s-0.2-1-0.7-1.5l-0.8-1l-2.6,2.2L166.2-18.4z"/>
		<path class="st0" d="M177.7-8.7l-2.4,1.6l2,3.1l-1.2,0.8l-2-3.1l-2.4,1.6l2.6,3.9L173,0l-3.7-5.6l8.6-5.7l3.7,5.6l-1.3,0.8
			L177.7-8.7z"/>
		<path class="st0" d="M182,11.7c0,0.1,0.1,0.2,0,0.3l-0.4,1.1c-0.7-0.1-1.3-0.4-1.8-0.9c-0.5-0.4-1-1-1.4-1.8
			c-0.4-0.7-0.6-1.4-0.6-2.1c-0.1-0.7,0-1.3,0.2-1.9s0.6-1.2,1-1.7c0.5-0.5,1-0.9,1.7-1.3s1.4-0.6,2.1-0.6c0.7-0.1,1.3,0,2,0.2
			c0.6,0.2,1.2,0.5,1.7,1s1,1,1.3,1.7c0.4,0.7,0.6,1.4,0.6,2c0.1,0.6,0,1.2-0.2,1.8l-1.1-0.2c-0.1,0-0.1,0-0.2-0.1
			c-0.1,0-0.1-0.1-0.2-0.2c0-0.1,0-0.1,0-0.2s0-0.2,0-0.3c0-0.1,0-0.2,0-0.4c0-0.1,0-0.3,0-0.5s-0.1-0.4-0.1-0.6
			c-0.1-0.2-0.2-0.4-0.3-0.7c-0.2-0.4-0.5-0.8-0.8-1.1s-0.7-0.5-1.1-0.6s-0.8-0.1-1.3-0.1c-0.5,0.1-1,0.2-1.5,0.5s-0.9,0.6-1.3,0.9
			c-0.3,0.4-0.6,0.7-0.7,1.1s-0.2,0.8-0.2,1.2c0,0.4,0.1,0.8,0.4,1.2c0.1,0.2,0.2,0.5,0.4,0.6s0.3,0.3,0.4,0.5
			c0.1,0.1,0.3,0.3,0.5,0.4s0.3,0.2,0.5,0.3c0.1,0,0.1,0.1,0.2,0.1C181.9,11.6,181.9,11.6,182,11.7z"/>
		<path class="st0" d="M193.9,24l-1.1-3l-8.2,3.1l-0.7-1.8l8.2-3.1l-1.1-3l1.5-0.6l3,7.8L193.9,24z"/>
		<path class="st0" d="M195.2,42c-0.7,0.2-1.4,0.2-2.1,0.1s-1.3-0.3-1.9-0.6c-0.6-0.3-1.1-0.8-1.5-1.4s-0.7-1.3-0.9-2
			c-0.2-0.8-0.2-1.5-0.2-2.2c0.1-0.7,0.3-1.3,0.7-1.9c0.3-0.6,0.8-1.1,1.4-1.5s1.2-0.7,1.9-0.9c0.7-0.2,1.4-0.2,2.1-0.1
			s1.3,0.3,1.9,0.7c0.6,0.3,1.1,0.8,1.5,1.4s0.7,1.3,0.9,2c0.1,0.5,0.2,1,0.2,1.5s-0.1,1-0.2,1.4s-0.3,0.9-0.5,1.2
			c-0.2,0.4-0.5,0.7-0.8,1s-0.7,0.6-1.1,0.8C196.1,41.7,195.7,41.9,195.2,42z M194.7,40c0.5-0.1,1-0.3,1.4-0.6
			c0.4-0.3,0.7-0.6,0.9-0.9c0.2-0.4,0.4-0.8,0.4-1.2c0.1-0.4,0-0.9-0.1-1.4s-0.3-0.9-0.6-1.3c-0.3-0.4-0.6-0.6-1-0.8
			c-0.4-0.2-0.8-0.3-1.3-0.4s-1,0-1.5,0.1s-1,0.3-1.4,0.6c-0.4,0.3-0.7,0.6-0.9,0.9c-0.2,0.4-0.4,0.8-0.4,1.2
			c-0.1,0.4,0,0.9,0.1,1.4s0.3,0.9,0.6,1.3c0.3,0.4,0.6,0.6,1,0.8c0.4,0.2,0.8,0.3,1.3,0.4C193.6,40.2,194.2,40.2,194.7,40z"/>
		<path class="st0" d="M192.5,58.7l-0.2-1.8c0-0.3,0.1-0.6,0.3-0.8l3-2.6c0.1-0.1,0.2-0.2,0.2-0.3s0-0.3,0-0.5l-0.1-0.8l-4,0.5
			l-0.3-2l10.2-1.3l0.4,3.2c0.1,0.7,0.1,1.3,0,1.9c-0.1,0.5-0.2,1-0.4,1.3c-0.2,0.4-0.5,0.6-0.8,0.8s-0.7,0.3-1.2,0.4
			c-0.3,0-0.7,0-1,0c-0.3-0.1-0.6-0.2-0.9-0.3c-0.3-0.2-0.5-0.4-0.8-0.6c-0.2-0.3-0.4-0.6-0.6-0.9c-0.1,0.1-0.1,0.3-0.2,0.4
			c-0.1,0.1-0.2,0.2-0.3,0.3L192.5,58.7z M197.3,53c0,0.4,0.1,0.7,0.3,0.9c0.1,0.3,0.3,0.5,0.5,0.6c0.2,0.2,0.4,0.3,0.6,0.3
			c0.2,0.1,0.5,0.1,0.7,0c0.5-0.1,0.9-0.3,1.1-0.7s0.3-0.9,0.2-1.7l-0.2-1.3l-3.4,0.4L197.3,53z"/>
		<path class="st0" d="M197.4,89.1c-0.8-0.1-1.4-0.8-1.3-1.6s0.8-1.4,1.6-1.3c0.8,0.1,1.4,0.8,1.3,1.6S198.2,89.2,197.4,89.1z"/>
		<path class="st0" d="M186.1,114l0.6-1.9l9.8,3.2l-0.6,1.9L186.1,114z"/>
		<path class="st0" d="M189.2,133.9l-9.4-4.2l0.4-0.9c0.1-0.1,0.1-0.3,0.2-0.3c0.1-0.1,0.2-0.1,0.4-0.2l8.6-2.3
			c-0.3-0.1-0.6-0.2-0.8-0.3l-5.8-2.6l0.7-1.6l9.4,4.2l-0.4,0.9c0,0.1-0.1,0.1-0.1,0.2c0,0.1-0.1,0.1-0.1,0.1l-0.1,0.1
			c-0.1,0-0.1,0-0.2,0.1l-8.6,2.3c0.2,0.1,0.3,0.1,0.5,0.2c0.2,0.1,0.3,0.1,0.4,0.2l5.7,2.6L189.2,133.9z"/>
		<path class="st0" d="M179.8,147.6l1.6-2.8l-7.5-4.5l1-1.7l7.5,4.5l1.6-2.8l1.4,0.8l-4.3,7.2L179.8,147.6z"/>
		<path class="st0" d="M174.1,155.8l-2.3-1.7l-2.2,3l-1.2-0.9l2.2-3l-2.3-1.8l-2.8,3.8l-1.2-0.9l4-5.3l8.2,6.2l-4,5.3l-1.2-0.9
			L174.1,155.8z"/>
		<path class="st0" d="M153.7,165.9l1.2-1.3c0.2-0.2,0.5-0.3,0.8-0.3l3.9,0.7c0.1,0,0.3,0,0.4,0c0.1,0,0.2-0.1,0.4-0.3l0.6-0.6
			l-2.9-2.8l1.4-1.4l7.5,7.1l-2.2,2.3c-0.5,0.5-1,0.9-1.4,1.2c-0.5,0.3-0.9,0.4-1.3,0.5c-0.4,0.1-0.8,0-1.2-0.1s-0.7-0.4-1-0.7
			c-0.3-0.2-0.5-0.5-0.6-0.8c-0.2-0.3-0.3-0.6-0.3-0.9c0-0.3,0-0.6,0-1c0.1-0.3,0.2-0.7,0.4-1c-0.1,0-0.3,0.1-0.4,0.1
			c-0.1,0-0.3,0-0.5,0L153.7,165.9z M161.2,165.9c-0.3,0.3-0.4,0.5-0.6,0.8c-0.1,0.3-0.2,0.5-0.2,0.8c0,0.2,0,0.5,0.1,0.7
			s0.2,0.4,0.4,0.6c0.4,0.4,0.8,0.5,1.2,0.4s0.9-0.4,1.4-0.9l0.9-0.9l-2.5-2.4L161.2,165.9z"/>
		<path class="st0" d="M141.7,176.2l1.2-1c0.1-0.1,0.3-0.2,0.4-0.2c0.1,0,0.3,0,0.4,0.1l2,1.1l3.4-2.8l-0.7-2.1c0-0.1,0-0.2,0-0.4
			c0-0.1,0.1-0.3,0.2-0.4l1.2-1l3.3,10.6l-1.6,1.3L141.7,176.2z M146.9,177l3.2,1.8c0.1,0.1,0.3,0.2,0.5,0.3
			c0.2,0.1,0.4,0.2,0.6,0.4c-0.1-0.2-0.2-0.4-0.3-0.7c-0.1-0.2-0.1-0.4-0.2-0.6l-1.2-3.5L146.9,177z"/>
		<path class="st0" d="M135.6,190.9l2.7-1.7l-4.8-7.3l1.7-1.1l4.8,7.3l2.7-1.7l0.9,1.3l-7,4.6L135.6,190.9z"/>
		<path class="st0" d="M122.9,187.9l1.8-0.9l4.8,9.2l-1.8,0.9L122.9,187.9z"/>
		<path class="st0" d="M111,204.3l0.2-11.2l1.7-0.7l7.8,8l-1.5,0.6c-0.2,0.1-0.3,0.1-0.4,0c-0.1,0-0.2-0.1-0.3-0.2l-4.6-4.9
			c-0.2-0.2-0.3-0.3-0.5-0.5s-0.3-0.4-0.5-0.6c0,0.3,0.1,0.5,0.1,0.8s0,0.5,0,0.7v6.8c0,0.1,0,0.2-0.1,0.4c-0.1,0.1-0.2,0.2-0.3,0.3
			L111,204.3z"/>
		<path class="st0" d="M101.1,205.7l-0.7-2.8l-3.6,0.9l-0.4-1.4l3.6-0.9l-0.7-2.8l-4.6,1.2l-0.4-1.5l6.5-1.7l2.6,10l-6.5,1.7
			l-0.4-1.5L101.1,205.7z"/>
		<path class="st0" d="M68.9,206.8c0-0.8,0-1.5,0.3-2.1c0.2-0.6,0.6-1.2,1-1.7s1-0.9,1.6-1.2c0.6-0.3,1.4-0.5,2.2-0.5l4-0.2
			l0.6,10.3l-4,0.2c-0.8,0-1.5,0-2.2-0.2s-1.3-0.5-1.8-1c-0.5-0.4-0.9-0.9-1.2-1.6C69.1,208.2,68.9,207.6,68.9,206.8z M70.9,206.7
			c0,0.6,0.1,1.1,0.3,1.5s0.4,0.8,0.7,1.1c0.3,0.3,0.7,0.5,1.1,0.7c0.4,0.1,0.9,0.2,1.4,0.2l2.1-0.1l-0.4-7.3l-2.1,0.1
			c-0.5,0-1,0.1-1.4,0.3c-0.4,0.2-0.7,0.5-1,0.8s-0.5,0.7-0.6,1.2C70.9,205.6,70.9,206.1,70.9,206.7z"/>
		<path class="st0" d="M58.7,210.2l0.2-2.9l-3.7-0.2l0.1-1.5l3.7,0.2l0.2-2.9l-4.7-0.3l0.1-1.5l6.7,0.4l-0.6,10.3l-6.7-0.4l0.1-1.5
			L58.7,210.2z"/>
		<path class="st0" d="M36.4,208.8l6.1-9.4l1.8,0.3l2.4,10.9l-1.6-0.3c-0.2,0-0.3-0.1-0.4-0.2s-0.2-0.2-0.2-0.4l-1.3-6.7
			c0-0.2-0.1-0.5-0.1-0.7c0-0.3-0.1-0.5-0.1-0.8c-0.1,0.3-0.2,0.5-0.3,0.7c-0.1,0.2-0.2,0.4-0.3,0.6l-3.6,5.8
			c-0.1,0.1-0.2,0.2-0.3,0.3c-0.1,0.1-0.3,0.1-0.4,0.1L36.4,208.8z"/>
		<path class="st0" d="M27.3,204.7l0.8-2.7l-3.6-1.1l0.4-1.4l3.6,1.1l0.9-2.8l-4.5-1.4l0.5-1.5l6.4,2l-3,9.9l-6.4-2l0.4-1.5
			L27.3,204.7z"/>
		<path class="st0" d="M12.1,191.4l0.6-1.5l5.7,2.4l-4.1,9.5l-1.8-0.8l3.4-8L12.1,191.4z"/>
		<path class="st0" d="M-4.6,186.5c0.4-0.7,0.8-1.2,1.4-1.6c0.5-0.4,1.1-0.7,1.8-0.9c0.6-0.2,1.3-0.2,2-0.1s1.4,0.3,2.1,0.7
			c0.7,0.4,1.3,0.9,1.7,1.4c0.4,0.6,0.8,1.2,0.9,1.8c0.2,0.6,0.2,1.3,0.1,2s-0.3,1.4-0.7,2c-0.4,0.7-0.8,1.2-1.4,1.6
			c-0.5,0.4-1.1,0.7-1.8,0.9c-0.6,0.2-1.3,0.2-2,0.1s-1.4-0.3-2.1-0.7c-0.5-0.3-0.9-0.6-1.2-0.9c-0.4-0.3-0.6-0.7-0.9-1.1
			c-0.2-0.4-0.4-0.8-0.5-1.2c-0.1-0.4-0.2-0.9-0.2-1.3s0.1-0.9,0.2-1.4C-5.1,187.4-4.9,186.9-4.6,186.5z M-2.9,187.5
			c-0.3,0.5-0.5,1-0.6,1.4s-0.1,0.9,0,1.3s0.3,0.8,0.6,1.1c0.3,0.3,0.6,0.7,1.1,0.9c0.5,0.3,0.9,0.4,1.3,0.5s0.9,0,1.3-0.1
			s0.8-0.3,1.2-0.7s0.7-0.7,1-1.2s0.5-1,0.6-1.4c0.1-0.5,0.1-0.9,0-1.3s-0.3-0.8-0.6-1.1c-0.3-0.3-0.6-0.7-1.1-0.9
			c-0.5-0.3-0.9-0.4-1.3-0.5s-0.9,0-1.3,0.1s-0.8,0.3-1.1,0.7C-2.3,186.6-2.6,187-2.9,187.5z"/>
		<path class="st0" d="M-17.1,184.1c-0.6-0.4-1-0.9-1.3-1.3c-0.3-0.4-0.5-0.9-0.6-1.3s-0.1-0.9,0-1.3s0.3-0.8,0.6-1.2
			c0.3-0.4,0.6-0.7,1-1c0.4-0.2,0.8-0.4,1.3-0.4s0.9,0,1.5,0.2c0.5,0.2,1,0.5,1.6,0.9l1.2,0.9l2.2-2.9l1.6,1.2l-6.2,8.3L-17.1,184.1
			z M-14,179.9c-0.3-0.2-0.6-0.4-0.8-0.5c-0.3-0.1-0.5-0.1-0.8-0.1c-0.2,0-0.5,0.1-0.7,0.2s-0.4,0.3-0.6,0.6
			c-0.2,0.2-0.3,0.4-0.3,0.7c-0.1,0.2-0.1,0.5,0,0.7c0,0.2,0.2,0.5,0.3,0.7c0.2,0.2,0.4,0.5,0.7,0.7l1.2,0.9l2.2-3L-14,179.9z"/>
		<path class="st0" d="M-27.1,173.8l2-2.1l-2.7-2.5l1-1.1l2.7,2.5l2-2.1l-3.5-3.2l1-1.1l4.9,4.6l-7,7.6l-4.9-4.6l1-1.1L-27.1,173.8z
			"/>
		<path class="st0" d="M-35.1,152.6l1.2,1.4c0.2,0.3,0.3,0.5,0.2,0.8l-1,3.9c0,0.1,0,0.3,0,0.4c0,0.1,0.1,0.2,0.2,0.4l0.6,0.6
			l3.1-2.6l1.3,1.5l-7.8,6.8l-2.1-2.5c-0.5-0.5-0.8-1.1-1-1.5c-0.2-0.5-0.4-0.9-0.4-1.4c0-0.4,0.1-0.8,0.2-1.2
			c0.2-0.4,0.4-0.7,0.8-1c0.3-0.2,0.5-0.4,0.8-0.5s0.6-0.2,0.9-0.2c0.3,0,0.6,0,1,0.1c0.3,0.1,0.7,0.2,1,0.5c0-0.1,0-0.3,0-0.4
			c0-0.1,0-0.3,0.1-0.4L-35.1,152.6z M-35.9,160c-0.2-0.3-0.5-0.5-0.7-0.6c-0.2-0.2-0.5-0.2-0.7-0.3c-0.2,0-0.5,0-0.7,0.1
			s-0.4,0.2-0.6,0.4c-0.4,0.3-0.6,0.7-0.6,1.2s0.3,1,0.7,1.5l0.8,1l2.6-2.2L-35.9,160z"/>
		<path class="st0" d="M-55.8,129.9c0.7-0.4,1.6-0.1,2,0.7c0.4,0.7,0.1,1.6-0.7,2c-0.7,0.4-1.6,0.1-2-0.7
			C-56.9,131.1-56.5,130.2-55.8,129.9z"/>
	</g>
	<g>
		<path class="st0" d="M104.6,60.7c0,18.2-5.1,30.9-15.4,38c-9.5,6.6-22.4,9.9-39,9.9H12.7v-2.5h8.7V18.4h-8.7v-2.5h41
			c17,0,29.7,3.5,38.2,10.4C100.4,33.2,104.6,44.7,104.6,60.7z M47.3,106.1h5c8.9,0,15.3-3.2,19.2-9.5c3.8-6.3,5.8-16.9,5.8-31.7
			v-7.7c0-19.9-3.8-31.9-11.4-35.9c-3.6-1.9-8.7-2.9-15.4-2.9h-3.2V106.1z"/>
		<path class="st0" d="M122.2,110c-3.8,0-6.7-1.1-8.6-3.4c-1.9-2.3-2.8-5-2.8-8.2s1-5.9,3-8.2c2-2.2,4.8-3.3,8.4-3.3
			c3.6,0,6.5,0.9,8.6,2.8s3.2,4.6,3.2,8.3s-1,6.6-3,8.7C128.9,108.9,126,110,122.2,110z"/>
	</g>
</g>
</svg>
